<svg id="mermaid-svg" width="100%" style="max-width: 654.8px;" xmlns="http://www.w3.org/2000/svg" xmlns:xlink="http://www.w3.org/1999/xlink" viewBox="0 0 654.8 1810.9" preserveAspectRatio="xMidYMid meet" class="flowchart" role="graphics-document document" aria-roledescription="flowchart-v2"><style>#mermaid-svg{font-family:"trebuchet ms",verdana,arial,sans-serif;font-size:20px;fill:#ccc;}@keyframes dash{to{stroke-dashoffset:0;}}#mermaid-svg .edge-animation-slow{stroke-dasharray:9,5!important;stroke-dashoffset:900;animation:dash 50s linear infinite;stroke-linecap:round;}#mermaid-svg .edge-animation-fast{stroke-dasharray:9,5!important;stroke-dashoffset:900;animation:dash 20s linear infinite;stroke-linecap:round;}#mermaid-svg .error-icon{fill:#a44141;}#mermaid-svg .error-text{fill:#ddd;stroke:#ddd;}#mermaid-svg .edge-thickness-normal{stroke-width:1px;}#mermaid-svg .edge-thickness-thick{stroke-width:3.5px;}#mermaid-svg .edge-pattern-solid{stroke-dasharray:0;}#mermaid-svg .edge-thickness-invisible{stroke-width:0;fill:none;}#mermaid-svg .edge-pattern-dashed{stroke-dasharray:3;}#mermaid-svg .edge-pattern-dotted{stroke-dasharray:2;}#mermaid-svg .marker{fill:#52525B;stroke:#52525B;}#mermaid-svg .marker.cross{stroke:#52525B;}#mermaid-svg svg{font-family:"trebuchet ms",verdana,arial,sans-serif;font-size:20px;}#mermaid-svg p{margin:0;}#mermaid-svg .label{font-family:"trebuchet ms",verdana,arial,sans-serif;color:#E4E4E7;}#mermaid-svg .cluster-label text{fill:#A1A1AA;}#mermaid-svg .cluster-label span{color:#A1A1AA;}#mermaid-svg .cluster-label span p{background-color:transparent;}#mermaid-svg .label text,#mermaid-svg span{fill:#E4E4E7;color:#E4E4E7;}#mermaid-svg .node rect,#mermaid-svg .node circle,#mermaid-svg .node ellipse,#mermaid-svg .node polygon,#mermaid-svg .node path{fill:#18181B;stroke:#3F3F46;stroke-width:1px;}#mermaid-svg .rough-node .label text,#mermaid-svg .node .label text,#mermaid-svg .image-shape .label,#mermaid-svg .icon-shape .label{text-anchor:middle;}#mermaid-svg .node .katex path{fill:#000;stroke:#000;stroke-width:1px;}#mermaid-svg .rough-node .label,#mermaid-svg .node .label,#mermaid-svg .image-shape .label,#mermaid-svg .icon-shape .label{text-align:center;}#mermaid-svg .node.clickable{cursor:pointer;}#mermaid-svg .root .anchor path{fill:#52525B!important;stroke-width:0;stroke:#52525B;}#mermaid-svg .arrowheadPath{fill:lightgrey;}#mermaid-svg .edgePath .path{stroke:#52525B;stroke-width:2.0px;}#mermaid-svg .flowchart-link{stroke:#52525B;fill:none;}#mermaid-svg .edgeLabel{background-color:#18181B;text-align:center;}#mermaid-svg .edgeLabel p{background-color:#18181B;}#mermaid-svg .edgeLabel rect{opacity:0.5;background-color:#18181B;fill:#18181B;}#mermaid-svg .labelBkg{background-color:rgba(24, 24, 27, 0.5);}#mermaid-svg .cluster rect{fill:#18181B;stroke:#3F3F46;stroke-width:1px;}#mermaid-svg .cluster text{fill:#A1A1AA;}#mermaid-svg .cluster span{color:#A1A1AA;}#mermaid-svg div.mermaidTooltip{position:absolute;text-align:center;max-width:200px;padding:2px;font-family:"trebuchet ms",verdana,arial,sans-serif;font-size:20px;background:#18181B;border:1px solid rgba(255, 255, 255, 0.25);border-radius:2px;pointer-events:none;z-index:100;}#mermaid-svg .flowchartTitleText{text-anchor:middle;font-size:20px;fill:#ccc;}#mermaid-svg rect.text{fill:none;stroke-width:0;}#mermaid-svg .icon-shape,#mermaid-svg .image-shape{background-color:#18181B;text-align:center;}#mermaid-svg .icon-shape p,#mermaid-svg .image-shape p{background-color:#18181B;padding:2px;}#mermaid-svg .icon-shape rect,#mermaid-svg .image-shape rect{opacity:0.5;background-color:#18181B;fill:#18181B;}#mermaid-svg .label-icon{display:inline-block;height:1em;overflow:visible;vertical-align:-0.125em;}#mermaid-svg .node .label-icon path{fill:currentColor;stroke:revert;stroke-width:revert;}#mermaid-svg :root{--mermaid-font-family:"trebuchet ms",verdana,arial,sans-serif;}</style><g><marker id="pointEnd" viewBox="0 0 10 10" refX="5" refY="5" markerUnits="userSpaceOnUse" markerWidth="8" markerHeight="8" orient="auto"><path d="M 0 0 L 10 5 L 0 10 z" class="arrowMarkerPath" style="max-width: 654.8px;"/></marker><marker id="pointStart" viewBox="0 0 10 10" refX="4.5" refY="5" markerUnits="userSpaceOnUse" markerWidth="8" markerHeight="8" orient="auto"><path d="M 0 5 L 10 10 L 10 0 z" class="arrowMarkerPath" style="stroke-width: 1; stroke-dasharray: 1, 0;"/></marker><marker id="circleEnd" viewBox="0 0 10 10" refX="11" refY="5" markerUnits="userSpaceOnUse" markerWidth="11" markerHeight="11" orient="auto"><circle cx="5" cy="5" r="5" class="arrowMarkerPath" style="stroke-width: 1; stroke-dasharray: 1, 0;"/></marker><marker id="circleStart" viewBox="0 0 10 10" refX="-1" refY="5" markerUnits="userSpaceOnUse" markerWidth="11" markerHeight="11" orient="auto"><circle cx="5" cy="5" r="5" class="arrowMarkerPath" style="stroke-width: 1; stroke-dasharray: 1, 0;"/></marker><marker id="crossEnd" class="marker cross" viewBox="0 0 11 11" refX="12" refY="5.2" markerUnits="userSpaceOnUse" markerWidth="11" markerHeight="11" orient="auto"><path d="M 1,1 l 9,9 M 10,1 l -9,9" class="arrowMarkerPath" style="stroke-width: 2; stroke-dasharray: 1, 0;"/></marker><marker id="crossStart" class="marker cross" viewBox="0 0 11 11" refX="-1" refY="5.2" markerUnits="userSpaceOnUse" markerWidth="11" markerHeight="11" orient="auto"><path d="M 1,1 l 9,9 M 10,1 l -9,9" class="arrowMarkerPath" style="stroke-width: 2; stroke-dasharray: 1, 0;"/></marker><g class="root"><g class="edgePaths"><path d="M326.6,86L326.6,90.2C326.6,94.3,326.6,102.7,326.6,110.3C326.6,118,326.6,125,326.6,128.5L326.6,132" class="edge-thickness-normal edge-pattern-solid flowchart-link" marker-end="url(#pointEnd)"/><path d="M326.6,214L326.6,218.2C326.6,222.3,326.6,230.7,326.6,238.3C326.6,246,326.6,253,326.6,256.5L326.6,260" class="edge-thickness-normal edge-pattern-solid flowchart-link" marker-end="url(#pointEnd)"/><path d="M326.6,342L326.6,346.2C326.6,350.3,326.6,358.7,326.6,366.3C326.6,374,326.6,381,326.6,384.5L326.6,388" class="edge-thickness-normal edge-pattern-solid flowchart-link" marker-end="url(#pointEnd)"/><path d="M326.6,500L326.6,504.2C326.6,508.3,326.6,516.7,326.6,524.3C326.6,532,326.6,539,326.6,542.5L326.6,546" class="edge-thickness-normal edge-pattern-solid flowchart-link" marker-end="url(#pointEnd)"/><path d="M275.9,676.3L255.7,691.4C235.4,706.5,194.9,736.7,174.6,765C154.4,793.3,154.4,819.6,154.4,843.4C154.4,867.3,154.4,888.6,154.4,912.4C154.4,936.3,154.4,962.6,154.4,988.9C154.4,1015.3,154.4,1041.6,154.4,1067.9C154.4,1094.3,154.4,1120.6,154.4,1146.9C154.4,1173.3,154.4,1199.6,154.4,1225.9C154.4,1252.3,154.4,1278.6,154.4,1304.9C154.4,1331.3,154.4,1357.6,154.4,1381.4C154.4,1405.3,154.4,1426.6,154.4,1447.9C154.4,1469.3,154.4,1490.6,154.4,1507.3C154.4,1523.9,154.4,1535.9,154.4,1541.9L154.4,1547.9" class="edge-thickness-normal edge-pattern-solid flowchart-link" marker-end="url(#pointEnd)"/><path d="M377.3,676.3L397.5,691.4C417.8,706.5,458.3,736.7,478.5,757.8C498.8,778.9,498.8,790.9,498.8,796.9L498.8,802.9" class="edge-thickness-normal edge-pattern-solid flowchart-link" marker-end="url(#pointEnd)"/><path d="M498.8,884.9L498.8,889.1C498.8,893.3,498.8,901.6,498.8,909.3C498.8,916.9,498.8,923.9,498.8,927.4L498.8,930.9" class="edge-thickness-normal edge-pattern-solid flowchart-link" marker-end="url(#pointEnd)"/><path d="M498.8,1042.9L498.8,1047.1C498.8,1051.3,498.8,1059.6,498.8,1067.3C498.8,1074.9,498.8,1081.9,498.8,1085.4L498.8,1088.9" class="edge-thickness-normal edge-pattern-solid flowchart-link" marker-end="url(#pointEnd)"/><path d="M498.8,1200.9L498.8,1205.1C498.8,1209.3,498.8,1217.6,498.8,1225.3C498.8,1232.9,498.8,1239.9,498.8,1243.4L498.8,1246.9" class="edge-thickness-normal edge-pattern-solid flowchart-link" marker-end="url(#pointEnd)"/><path d="M498.8,1358.9L498.8,1363.1C498.8,1367.3,498.8,1375.6,498.8,1383.3C498.8,1390.9,498.8,1397.9,498.8,1401.4L498.8,1404.9" class="edge-thickness-normal edge-pattern-solid flowchart-link" marker-end="url(#pointEnd)"/><path d="M498.8,1486.9L498.8,1491.1C498.8,1495.3,498.8,1503.6,498.8,1511.3C498.8,1518.9,498.8,1525.9,498.8,1529.4L498.8,1532.9" class="edge-thickness-normal edge-pattern-solid flowchart-link" marker-end="url(#pointEnd)"/><path d="M154.4,1629.9L154.4,1636.6C154.4,1643.3,154.4,1656.6,163.5,1667.5C172.7,1678.3,190.9,1686.7,200.1,1690.9L209.2,1695.1" class="edge-thickness-normal edge-pattern-solid flowchart-link" marker-end="url(#pointEnd)"/><path d="M498.8,1644.9L498.8,1649.1C498.8,1653.3,498.8,1661.6,489.6,1670C480.5,1678.3,462.2,1686.7,453.1,1690.9L444,1695.1" class="edge-thickness-normal edge-pattern-solid flowchart-link" marker-end="url(#pointEnd)"/></g><g class="nodes"><g class="node default" id="flowchart-A-0" transform="translate(326.6, 47)"><rect class="basic label-container" style="" x="-136.4" y="-39" width="100%"/><g class="label" style="" transform="translate(-88.4, -15)"><rect/><foreignObject width="176.8" height="30"><div xmlns="http://www.w3.org/1999/xhtml" style="display: table-cell; white-space: nowrap; line-height: 1.5; max-width: 200px; text-align: center;"><span class="nodeLabel"><p>User Uploads Audio</p></span></div></foreignObject></g></g><g class="node default" id="flowchart-B-1" transform="translate(326.6, 175)"><rect class="basic label-container" style="" x="-135.1" y="-39" width="270.2" height="78"/><g class="label" style="" transform="translate(-87.1, -15)"><rect/><foreignObject width="174.2" height="30"><div xmlns="http://www.w3.org/1999/xhtml" style="display: table-cell; white-space: nowrap; line-height: 1.5; max-width: 200px; text-align: center;"><span class="nodeLabel"><p>POST /scan-upload</p></span></div></foreignObject></g></g><g class="node default" id="flowchart-C-2" transform="translate(326.6, 303)"><rect class="basic label-container" style="" x="-122.5" y="-39" width="244.9" height="78"/><g class="label" style="" transform="translate(-74.5, -15)"><rect/><foreignObject width="148.9" height="30"><div xmlns="http://www.w3.org/1999/xhtml" style="display: table-cell; white-space: nowrap; line-height: 1.5; max-width: 200px; text-align: center;"><span class="nodeLabel"><p>Verify Clerk JWT</p></span></div></foreignObject></g></g><g class="node default" id="flowchart-D-3" transform="translate(326.6, 446)"><rect class="basic label-container" style="" x="-133.6" y="-54" width="267.2" height="108"/><g class="label" style="" transform="translate(-85.6, -30)"><rect/><foreignObject width="171.2" height="60"><div xmlns="http://www.w3.org/1999/xhtml" style="display: table-cell; white-space: nowrap; line-height: 1.5; max-width: 200px; text-align: center;"><span class="nodeLabel"><p>SHA-256 File Hash<br/><small>Dedup Check</small></p></span></div></foreignObject></g></g><g class="node default" id="flowchart-E-4" transform="translate(326.6, 638.5)"><polygon points="88.5,0 176.9,-88.5 88.5,-176.9 0,-88.5" class="label-container" transform="translate(-88, 88.5)"/><g class="label" style="" transform="translate(-49.5, -15)"><rect/><foreignObject width="99" height="30"><div xmlns="http://www.w3.org/1999/xhtml" style="display: table-cell; white-space: nowrap; line-height: 1.5; max-width: 200px; text-align: center;"><span class="nodeLabel"><p>Cache Hit?</p></span></div></foreignObject></g></g><g class="node default" id="flowchart-F-5" transform="translate(154.4, 1590.9)"><rect class="basic label-container" style="" x="-146.4" y="-39" width="292.8" height="78"/><g class="label" style="" transform="translate(-98.4, -15)"><rect/><foreignObject width="196.8" height="30"><div xmlns="http://www.w3.org/1999/xhtml" style="display: table-cell; white-space: nowrap; line-height: 1.5; max-width: 200px; text-align: center;"><span class="nodeLabel"><p>Return Cached Result</p></span></div></foreignObject></g></g><g class="node default" id="flowchart-G-6" transform="translate(498.8, 845.9)"><rect class="basic label-container" style="" x="-129.7" y="-39" width="259.4" height="78"/><g class="label" style="" transform="translate(-81.7, -15)"><rect/><foreignObject width="163.4" height="30"><div xmlns="http://www.w3.org/1999/xhtml" style="display: table-cell; white-space: nowrap; line-height: 1.5; max-width: 200px; text-align: center;"><span class="nodeLabel"><p>Forward to Engine</p></span></div></foreignObject></g></g><g class="node default" id="flowchart-H-7" transform="translate(498.8, 988.9)"><rect class="basic label-container" style="" x="-148" y="-54" width="296" height="108"/><g class="label" style="" transform="translate(-100, -30)"><foreignObject width="200" height="60"><div xmlns="http://www.w3.org/1999/xhtml" style="display: table; white-space: break-spaces; line-height: 1.5; max-width: 200px; text-align: center; width: 200px;"><span class="nodeLabel"><p>Load Wav2Vec2 Model</p></span></div></foreignObject></g></g><g class="node default" id="flowchart-I-8" transform="translate(498.8, 1146.9)"><rect class="basic label-container" style="" x="-148" y="-54" width="296" height="108"/><g class="label" style="" transform="translate(-100, -30)"><foreignObject width="200" height="60"><div xmlns="http://www.w3.org/1999/xhtml" style="display: table; white-space: break-spaces; line-height: 1.5; max-width: 200px; text-align: center; width: 200px;"><span class="nodeLabel"><p>Extract MFCC Features</p></span></div></foreignObject></g></g><g class="node default" id="flowchart-J-9" transform="translate(498.8, 1304.9)"><rect class="basic label-container" style="" x="-148" y="-54" width="296" height="108"/><g class="label" style="" transform="translate(-100, -30)"><foreignObject width="200" height="60"><div xmlns="http://www.w3.org/1999/xhtml" style="display: table; white-space: break-spaces; line-height: 1.5; max-width: 200px; text-align: center; width: 200px;"><span class="nodeLabel"><p>ML + Heuristic Scoring</p></span></div></foreignObject></g></g><g class="node default" id="flowchart-K-10" transform="translate(498.8, 1447.9)"><rect class="basic label-container" style="" x="-139.2" y="-39" width="278.3" height="78"/><g class="label" style="" transform="translate(-91.2, -15)"><rect/><foreignObject width="182.3" height="30"><div xmlns="http://www.w3.org/1999/xhtml" style="display: table-cell; white-space: nowrap; line-height: 1.5; max-width: 200px; text-align: center;"><span class="nodeLabel"><p>Save to PostgreSQL</p></span></div></foreignObject></g></g><g class="node default" id="flowchart-L-11" transform="translate(498.8, 1590.9)"><rect class="basic label-container" style="" x="-148" y="-54" width="296" height="108"/><g class="label" style="" transform="translate(-100, -30)"><foreignObject width="200" height="60"><div xmlns="http://www.w3.org/1999/xhtml" style="display: table; white-space: break-spaces; line-height: 1.5; max-width: 200px; text-align: center; width: 200px;"><span class="nodeLabel"><p>Return JSON Response</p></span></div></foreignObject></g></g><g class="node default" id="flowchart-M-12" transform="translate(326.6, 1748.9)"><rect class="basic label-container" style="" x="-113.7" y="-54" width="227.5" height="108"/><g class="label" style="" transform="translate(-65.7, -30)"><rect/><foreignObject width="131.5" height="60"><div xmlns="http://www.w3.org/1999/xhtml" style="display: table-cell; white-space: nowrap; line-height: 1.5; max-width: 200px; text-align: center;"><span class="nodeLabel"><p>Display Result<br/><small>Confidence Meter</small></p></span></div></foreignObject></g></g></g></g></g></svg>
