<svg id="mermaid-svg" width="100%" style="max-width: 977.8px;" xmlns="http://www.w3.org/2000/svg" xmlns:xlink="http://www.w3.org/1999/xlink" viewBox="0 0 977.8 966.3" preserveAspectRatio="xMidYMid meet" class="flowchart" role="graphics-document document" aria-roledescription="flowchart-v2"><style>#mermaid-svg{font-family:"trebuchet ms",verdana,arial,sans-serif;font-size:20px;fill:#ccc;}@keyframes dash{to{stroke-dashoffset:0;}}#mermaid-svg .edge-animation-slow{stroke-dasharray:9,5!important;stroke-dashoffset:900;animation:dash 50s linear infinite;stroke-linecap:round;}#mermaid-svg .edge-animation-fast{stroke-dasharray:9,5!important;stroke-dashoffset:900;animation:dash 20s linear infinite;stroke-linecap:round;}#mermaid-svg .error-icon{fill:#a44141;}#mermaid-svg .error-text{fill:#ddd;stroke:#ddd;}#mermaid-svg .edge-thickness-normal{stroke-width:1px;}#mermaid-svg .edge-thickness-thick{stroke-width:3.5px;}#mermaid-svg .edge-pattern-solid{stroke-dasharray:0;}#mermaid-svg .edge-thickness-invisible{stroke-width:0;fill:none;}#mermaid-svg .edge-pattern-dashed{stroke-dasharray:3;}#mermaid-svg .edge-pattern-dotted{stroke-dasharray:2;}#mermaid-svg .marker{fill:#52525B;stroke:#52525B;}#mermaid-svg .marker.cross{stroke:#52525B;}#mermaid-svg svg{font-family:"trebuchet ms",verdana,arial,sans-serif;font-size:20px;}#mermaid-svg p{margin:0;}#mermaid-svg .label{font-family:"trebuchet ms",verdana,arial,sans-serif;color:#E4E4E7;}#mermaid-svg .cluster-label text{fill:#A1A1AA;}#mermaid-svg .cluster-label span{color:#A1A1AA;}#mermaid-svg .cluster-label span p{background-color:transparent;}#mermaid-svg .label text,#mermaid-svg span{fill:#E4E4E7;color:#E4E4E7;}#mermaid-svg .node rect,#mermaid-svg .node circle,#mermaid-svg .node ellipse,#mermaid-svg .node polygon,#mermaid-svg .node path{fill:#18181B;stroke:#3F3F46;stroke-width:1px;}#mermaid-svg .rough-node .label text,#mermaid-svg .node .label text,#mermaid-svg .image-shape .label,#mermaid-svg .icon-shape .label{text-anchor:middle;}#mermaid-svg .node .katex path{fill:#000;stroke:#000;stroke-width:1px;}#mermaid-svg .rough-node .label,#mermaid-svg .node .label,#mermaid-svg .image-shape .label,#mermaid-svg .icon-shape .label{text-align:center;}#mermaid-svg .node.clickable{cursor:pointer;}#mermaid-svg .root .anchor path{fill:#52525B!important;stroke-width:0;stroke:#52525B;}#mermaid-svg .arrowheadPath{fill:lightgrey;}#mermaid-svg .edgePath .path{stroke:#52525B;stroke-width:2.0px;}#mermaid-svg .flowchart-link{stroke:#52525B;fill:none;}#mermaid-svg .edgeLabel{background-color:#18181B;text-align:center;}#mermaid-svg .edgeLabel p{background-color:#18181B;}#mermaid-svg .edgeLabel rect{opacity:0.5;background-color:#18181B;fill:#18181B;}#mermaid-svg .labelBkg{background-color:rgba(24, 24, 27, 0.5);}#mermaid-svg .cluster rect{fill:#18181B;stroke:#3F3F46;stroke-width:1px;}#mermaid-svg .cluster text{fill:#A1A1AA;}#mermaid-svg .cluster span{color:#A1A1AA;}#mermaid-svg div.mermaidTooltip{position:absolute;text-align:center;max-width:200px;padding:2px;font-family:"trebuchet ms",verdana,arial,sans-serif;font-size:20px;background:#18181B;border:1px solid rgba(255, 255, 255, 0.25);border-radius:2px;pointer-events:none;z-index:100;}#mermaid-svg .flowchartTitleText{text-anchor:middle;font-size:20px;fill:#ccc;}#mermaid-svg rect.text{fill:none;stroke-width:0;}#mermaid-svg .icon-shape,#mermaid-svg .image-shape{background-color:#18181B;text-align:center;}#mermaid-svg .icon-shape p,#mermaid-svg .image-shape p{background-color:#18181B;padding:2px;}#mermaid-svg .icon-shape rect,#mermaid-svg .image-shape rect{opacity:0.5;background-color:#18181B;fill:#18181B;}#mermaid-svg .label-icon{display:inline-block;height:1em;overflow:visible;vertical-align:-0.125em;}#mermaid-svg .node .label-icon path{fill:currentColor;stroke:revert;stroke-width:revert;}#mermaid-svg :root{--mermaid-font-family:"trebuchet ms",verdana,arial,sans-serif;}</style><g><marker id="pointEnd" viewBox="0 0 10 10" refX="5" refY="5" markerUnits="userSpaceOnUse" markerWidth="8" markerHeight="8" orient="auto"><path d="M 0 0 L 10 5 L 0 10 z" class="arrowMarkerPath" style="max-width: 977.8px;"/></marker><marker id="pointStart" viewBox="0 0 10 10" refX="4.5" refY="5" markerUnits="userSpaceOnUse" markerWidth="8" markerHeight="8" orient="auto"><path d="M 0 5 L 10 10 L 10 0 z" class="arrowMarkerPath" style="stroke-width: 1; stroke-dasharray: 1, 0;"/></marker><marker id="circleEnd" viewBox="0 0 10 10" refX="11" refY="5" markerUnits="userSpaceOnUse" markerWidth="11" markerHeight="11" orient="auto"><circle cx="5" cy="5" r="5" class="arrowMarkerPath" style="stroke-width: 1; stroke-dasharray: 1, 0;"/></marker><marker id="circleStart" viewBox="0 0 10 10" refX="-1" refY="5" markerUnits="userSpaceOnUse" markerWidth="11" markerHeight="11" orient="auto"><circle cx="5" cy="5" r="5" class="arrowMarkerPath" style="stroke-width: 1; stroke-dasharray: 1, 0;"/></marker><marker id="crossEnd" class="marker cross" viewBox="0 0 11 11" refX="12" refY="5.2" markerUnits="userSpaceOnUse" markerWidth="11" markerHeight="11" orient="auto"><path d="M 1,1 l 9,9 M 10,1 l -9,9" class="arrowMarkerPath" style="stroke-width: 2; stroke-dasharray: 1, 0;"/></marker><marker id="crossStart" class="marker cross" viewBox="0 0 11 11" refX="-1" refY="5.2" markerUnits="userSpaceOnUse" markerWidth="11" markerHeight="11" orient="auto"><path d="M 1,1 l 9,9 M 10,1 l -9,9" class="arrowMarkerPath" style="stroke-width: 2; stroke-dasharray: 1, 0;"/></marker><g class="root"><g class="clusters"><g class="cluster" id="PROD"><rect style="" x="8" y="442" width="100%"/><g class="cluster-label" transform="translate(400, 442)"><foreignObject width="177.9" height="30"><div xmlns="http://www.w3.org/1999/xhtml" style="display: table-cell; white-space: nowrap; line-height: 1.5; max-width: 200px; text-align: center;"><span class="nodeLabel"><p>Production Services</p></span></div></foreignObject></g></g><g class="cluster" id="CICD"><rect style="" x="384.9" y="8" width="426.6" height="384"/><g class="cluster-label" transform="translate(532.6, 8)"><foreignObject width="131.2" height="30"><div xmlns="http://www.w3.org/1999/xhtml" style="display: table-cell; white-space: nowrap; line-height: 1.5; max-width: 200px; text-align: center;"><span class="nodeLabel"><p>CI/CD Pipeline</p></span></div></foreignObject></g></g></g><g class="edgePaths"><path d="M631.9,111L631.9,115.2C631.9,119.3,631.9,127.7,631.9,135.3C631.9,143,631.9,150,631.9,153.5L631.9,157" id="L_GH_CHK_0" class="edge-thickness-normal edge-pattern-solid flowchart-link" marker-end="url(#pointEnd)"/><path d="M631.9,239L631.9,243.2C631.9,247.3,631.9,255.7,631.9,263.3C631.9,271,631.9,278,631.9,281.5L631.9,285" id="L_CHK_AD_0" class="edge-thickness-normal edge-pattern-solid flowchart-link" marker-end="url(#pointEnd)"/><path d="M682,367L687.3,371.2C692.7,375.3,703.4,383.7,708.7,392C714.1,400.3,714.1,408.7,714.1,417C714.1,425.3,714.1,433.7,714.1,441.3C714.1,449,714.1,456,714.1,459.5L714.1,463" id="L_AD_V_0" class="edge-thickness-normal edge-pattern-solid flowchart-link" marker-end="url(#pointEnd)"/><path d="M546.8,367L537.7,371.2C528.6,375.3,510.4,383.7,501.3,392C492.2,400.3,492.2,408.7,492.2,417C492.2,425.3,492.2,433.7,492.2,451C492.2,468.3,492.2,494.7,492.2,521C492.2,547.3,492.2,573.7,492.8,591.9C493.4,610,494.5,620.1,495.1,625.1L495.7,630.1" id="L_AD_R_0" class="edge-thickness-normal edge-pattern-solid flowchart-link" marker-end="url(#pointEnd)"/><path d="M599.3,575L590.4,579.2C581.6,583.3,563.9,591.7,552.5,600.9C541.1,610.2,536,620.4,533.5,625.4L530.9,630.5" id="L_V_R_0" class="edge-thickness-normal edge-pattern-solid flowchart-link" marker-end="url(#pointEnd)"/><path d="M793.2,575L799.3,579.2C805.4,583.3,817.7,591.7,823.8,599.3C829.9,607,829.9,614,829.9,617.5L829.9,621" id="L_V_RZ_0" class="edge-thickness-normal edge-pattern-solid flowchart-link" marker-end="url(#pointEnd)"/><path d="M373.5,720.8L337,730C300.6,739.2,227.7,757.7,191.2,770.5C154.8,783.2,154.8,790.2,154.8,793.7L154.8,797.2" id="L_R_MA_0" class="edge-thickness-normal edge-pattern-solid flowchart-link" marker-end="url(#pointEnd)"/><path d="M441.9,742.1L435.5,747.8C429.2,753.5,416.4,764.8,410.1,774.4C403.7,784,403.7,791.7,403.7,795.6L403.7,799.4" id="L_R_RC_0" class="edge-thickness-normal edge-pattern-solid flowchart-link" marker-end="url(#pointEnd)"/><path d="M562.6,742.1L569,747.8C575.3,753.5,588,764.8,594.4,775C600.8,785.1,600.8,794,600.8,798.5L600.8,802.9" id="L_R_CL_0" class="edge-thickness-normal edge-pattern-solid flowchart-link" marker-end="url(#pointEnd)"/><path d="M631,726.8L658.4,735C685.8,743.3,740.6,759.8,768,771.9C795.4,784,795.4,791.9,795.4,795.8L795.4,799.7" id="L_R_BR_0" class="edge-thickness-normal edge-pattern-solid flowchart-link" marker-end="url(#pointEnd)"/></g><g class="nodes"><g class="node default" id="flowchart-GH-0" transform="translate(631.9, 72)"><rect class="basic label-container" style="" x="-110.8" y="-39" width="221.6" height="78"/><g class="label" style="" transform="translate(-62.8, -15)"><rect/><foreignObject width="125.6" height="30"><div xmlns="http://www.w3.org/1999/xhtml" style="display: table-cell; white-space: nowrap; line-height: 1.5; max-width: 200px; text-align: center;"><span class="nodeLabel"><p>Git Push main</p></span></div></foreignObject></g></g><g class="node default" id="flowchart-CHK-1" transform="translate(631.9, 200)"><rect class="basic label-container" style="" x="-139.7" y="-39" width="279.5" height="78"/><g class="label" style="" transform="translate(-91.7, -15)"><rect/><foreignObject width="183.5" height="30"><div xmlns="http://www.w3.org/1999/xhtml" style="display: table-cell; white-space: nowrap; line-height: 1.5; max-width: 200px; text-align: center;"><span class="nodeLabel"><p>Lint + Syntax + Build</p></span></div></foreignObject></g></g><g class="node default" id="flowchart-AD-2" transform="translate(631.9, 328)"><rect class="basic label-container" style="" x="-102.5" y="-39" width="205" height="78"/><g class="label" style="" transform="translate(-54.5, -15)"><rect/><foreignObject width="109" height="30"><div xmlns="http://www.w3.org/1999/xhtml" style="display: table-cell; white-space: nowrap; line-height: 1.5; max-width: 200px; text-align: center;"><span class="nodeLabel"><p>Auto Deploy</p></span></div></foreignObject></g></g><g class="node default" id="flowchart-V-3" transform="translate(714.1, 521)"><rect class="basic label-container" style="" x="-129.4" y="-54" width="258.8" height="108"/><g class="label" style="" transform="translate(-81.4, -30)"><rect/><foreignObject width="162.8" height="60"><div xmlns="http://www.w3.org/1999/xhtml" style="display: table-cell; white-space: nowrap; line-height: 1.5; max-width: 200px; text-align: center;"><span class="nodeLabel"><p>Vercel<br/><small>React 19 PWA + CDN</small></p></span></div></foreignObject></g></g><g class="node default" id="flowchart-R-4" transform="translate(502.2, 688.1)"><rect class="basic label-container" style="" x="-128.8" y="-54" width="257.6" height="108"/><g class="label" style="" transform="translate(-80.8, -30)"><rect/><foreignObject width="161.6" height="60"><div xmlns="http://www.w3.org/1999/xhtml" style="display: table-cell; white-space: nowrap; line-height: 1.5; max-width: 200px; text-align: center;"><span class="nodeLabel"><p>Render<br/><small>Express 5 + Socket.io</small></p></span></div></foreignObject></g></g><g class="node default" id="flowchart-MA-5" transform="translate(154.8, 867.3)"><path d="M0,16 a111.8,16 0,0,0 223.5,0 a111.8,16 0,0,0 -223.5,0 l0,100 a111.8,16 0,0,0 223.5,0 l0,-100" class="basic label-container" style=""/><g class="label" style="" transform="translate(-99.8, -14)"><rect/><foreignObject width="199.5" height="60"><div xmlns="http://www.w3.org/1999/xhtml" style="display: table-cell; white-space: nowrap; line-height: 1.5; max-width: 200px; text-align: center;"><span class="nodeLabel"><p>MongoDB Atlas<br/><small>14 Collections + GeoJSON</small></p></span></div></foreignObject></g></g><g class="node default" id="flowchart-RC-6" transform="translate(403.7, 867.3)"><path d="M0,14.6 a87.2,14.6 0,0,0 174.4,0 a87.2,14.6 0,0,0 -174.4,0 l0,98.6 a87.2,14.6 0,0,0 174.4,0 l0,-98.6" class="basic label-container" style=""/><g class="label" style="" transform="translate(-75.2, -14)"><rect/><foreignObject width="150.4" height="60"><div xmlns="http://www.w3.org/1999/xhtml" style="display: table-cell; white-space: nowrap; line-height: 1.5; max-width: 200px; text-align: center;"><span class="nodeLabel"><p>Redis Cloud<br/><small>Cache + Rate Limits</small></p></span></div></foreignObject></g></g><g class="node default" id="flowchart-CL-7" transform="translate(600.8, 867.3)"><path d="M0,12.2 a59.8,12.2 0,0,0 119.6,0 a59.8,12.2 0,0,0 -119.6,0 l0,96.2 a59.8,12.2 0,0,0 119.6,0 l0,-96.2" class="basic label-container" style=""/><g class="label" style="" transform="translate(-47.8, -14)"><rect/><foreignObject width="95.6" height="60"><div xmlns="http://www.w3.org/1999/xhtml" style="display: table-cell; white-space: nowrap; line-height: 1.5; max-width: 200px; text-align: center;"><span class="nodeLabel"><p>Cloudinary<br/><small>Image CDN</small></p></span></div></foreignObject></g></g><g class="node default" id="flowchart-RZ-8" transform="translate(829.9, 688.1)"><path d="M0,14.1 a80.5,14.1 0,0,0 161,0 a80.5,14.1 0,0,0 -161,0 l0,98.1 a80.5,14.1 0,0,0 161,0 l0,-98.1" class="basic label-container" style=""/><g class="label" style="" transform="translate(-68.5, -14)"><rect/><foreignObject width="137" height="60"><div xmlns="http://www.w3.org/1999/xhtml" style="display: table-cell; white-space: nowrap; line-height: 1.5; max-width: 200px; text-align: center;"><span class="nodeLabel"><p>Razorpay<br/><small>UPI / Cards / COD</small></p></span></div></foreignObject></g></g><g class="node default" id="flowchart-BR-9" transform="translate(795.4, 867.3)"><path d="M0,14.4 a84.8,14.4 0,0,0 169.7,0 a84.8,14.4 0,0,0 -169.7,0 l0,98.4 a84.8,14.4 0,0,0 169.7,0 l0,-98.4" class="basic label-container" style=""/><g class="label" style="" transform="translate(-72.8, -14)"><rect/><foreignObject width="145.7" height="60"><div xmlns="http://www.w3.org/1999/xhtml" style="display: table-cell; white-space: nowrap; line-height: 1.5; max-width: 200px; text-align: center;"><span class="nodeLabel"><p>Brevo<br/><small>Transactional Email</small></p></span></div></foreignObject></g></g></g></g></g></svg>
