<svg xmlns="http://www.w3.org/2000/svg" xmlns:xlink="http://www.w3.org/1999/xlink" id="mermaid-svg" width="1590" class="flowchart" style="max-width: 1590px;" viewBox="0 -25 1590.0859375 2478.804931640625" role="graphics-document document" aria-roledescription="flowchart-v2" crxlauncher=""><style xmlns="http://www.w3.org/1999/xhtml">@import url("https://cdnjs.cloudflare.com/ajax/libs/font-awesome/6.7.2/css/all.min.css");</style><style>#mermaid-svg{font-family:"trebuchet ms",verdana,arial,sans-serif;font-size:20px;fill:#ccc;}@keyframes edge-animation-frame{from{stroke-dashoffset:0;}}@keyframes dash{to{stroke-dashoffset:0;}}#mermaid-svg .edge-animation-slow{stroke-dasharray:9,5!important;stroke-dashoffset:900;animation:dash 50s linear infinite;stroke-linecap:round;}#mermaid-svg .edge-animation-fast{stroke-dasharray:9,5!important;stroke-dashoffset:900;animation:dash 20s linear infinite;stroke-linecap:round;}#mermaid-svg .error-icon{fill:#a44141;}#mermaid-svg .error-text{fill:#ddd;stroke:#ddd;}#mermaid-svg .edge-thickness-normal{stroke-width:1px;}#mermaid-svg .edge-thickness-thick{stroke-width:3.5px;}#mermaid-svg .edge-pattern-solid{stroke-dasharray:0;}#mermaid-svg .edge-thickness-invisible{stroke-width:0;fill:none;}#mermaid-svg .edge-pattern-dashed{stroke-dasharray:3;}#mermaid-svg .edge-pattern-dotted{stroke-dasharray:2;}#mermaid-svg .marker{fill:#52525B;stroke:#52525B;}#mermaid-svg .marker.cross{stroke:#52525B;}#mermaid-svg svg{font-family:"trebuchet ms",verdana,arial,sans-serif;font-size:20px;}#mermaid-svg p{margin:0;}#mermaid-svg .label{font-family:"trebuchet ms",verdana,arial,sans-serif;color:#E4E4E7;}#mermaid-svg .cluster-label text{fill:#A1A1AA;}#mermaid-svg .cluster-label span{color:#A1A1AA;}#mermaid-svg .cluster-label span p{background-color:transparent;}#mermaid-svg .label text,#mermaid-svg span{fill:#E4E4E7;color:#E4E4E7;}#mermaid-svg .node rect,#mermaid-svg .node circle,#mermaid-svg .node ellipse,#mermaid-svg .node polygon,#mermaid-svg .node path{fill:#18181B;stroke:#3F3F46;stroke-width:1px;}#mermaid-svg .rough-node .label text,#mermaid-svg .node .label text,#mermaid-svg .image-shape .label,#mermaid-svg .icon-shape .label{text-anchor:middle;}#mermaid-svg .node .katex path{fill:#000;stroke:#000;stroke-width:1px;}#mermaid-svg .rough-node .label,#mermaid-svg .node .label,#mermaid-svg .image-shape .label,#mermaid-svg .icon-shape .label{text-align:center;}#mermaid-svg .node.clickable{cursor:pointer;}#mermaid-svg .root .anchor path{fill:#52525B!important;stroke-width:0;stroke:#52525B;}#mermaid-svg .arrowheadPath{fill:lightgrey;}#mermaid-svg .edgePath .path{stroke:#52525B;stroke-width:2.0px;}#mermaid-svg .flowchart-link{stroke:#52525B;fill:none;}#mermaid-svg .edgeLabel{background-color:#18181B;text-align:center;}#mermaid-svg .edgeLabel p{background-color:#18181B;}#mermaid-svg .edgeLabel rect{opacity:0.5;background-color:#18181B;fill:#18181B;}#mermaid-svg .labelBkg{background-color:rgba(24, 24, 27, 0.5);}#mermaid-svg .cluster rect{fill:#18181B;stroke:#3F3F46;stroke-width:1px;}#mermaid-svg .cluster text{fill:#A1A1AA;}#mermaid-svg .cluster span{color:#A1A1AA;}#mermaid-svg div.mermaidTooltip{position:absolute;text-align:center;max-width:200px;padding:2px;font-family:"trebuchet ms",verdana,arial,sans-serif;font-size:12px;background:#18181B;border:1px solid rgba(255, 255, 255, 0.25);border-radius:2px;pointer-events:none;z-index:100;}#mermaid-svg .flowchartTitleText{text-anchor:middle;font-size:18px;fill:#ccc;}#mermaid-svg rect.text{fill:none;stroke-width:0;}#mermaid-svg .icon-shape,#mermaid-svg .image-shape{background-color:#18181B;text-align:center;}#mermaid-svg .icon-shape p,#mermaid-svg .image-shape p{background-color:#18181B;padding:2px;}#mermaid-svg .icon-shape rect,#mermaid-svg .image-shape rect{opacity:0.5;background-color:#18181B;fill:#18181B;}#mermaid-svg .label-icon{display:inline-block;height:1em;overflow:visible;vertical-align:-0.125em;}#mermaid-svg .node .label-icon path{fill:currentColor;stroke:revert;stroke-width:revert;}#mermaid-svg :root{--mermaid-font-family:"trebuchet ms",verdana,arial,sans-serif;}</style><g><marker id="mermaid-svg_flowchart-v2-pointEnd" class="marker flowchart-v2" viewBox="0 0 10 10" refX="5" refY="5" markerUnits="userSpaceOnUse" markerWidth="8" markerHeight="8" orient="auto"><path d="M 0 0 L 10 5 L 0 10 z" class="arrowMarkerPath" style="stroke-width: 1; stroke-dasharray: 1, 0;"/></marker><marker id="mermaid-svg_flowchart-v2-pointStart" class="marker flowchart-v2" viewBox="0 0 10 10" refX="4.5" refY="5" markerUnits="userSpaceOnUse" markerWidth="8" markerHeight="8" orient="auto"><path d="M 0 5 L 10 10 L 10 0 z" class="arrowMarkerPath" style="stroke-width: 1; stroke-dasharray: 1, 0;"/></marker><marker id="mermaid-svg_flowchart-v2-circleEnd" class="marker flowchart-v2" viewBox="0 0 10 10" refX="11" refY="5" markerUnits="userSpaceOnUse" markerWidth="11" markerHeight="11" orient="auto"><circle cx="5" cy="5" r="5" class="arrowMarkerPath" style="stroke-width: 1; stroke-dasharray: 1, 0;"/></marker><marker id="mermaid-svg_flowchart-v2-circleStart" class="marker flowchart-v2" viewBox="0 0 10 10" refX="-1" refY="5" markerUnits="userSpaceOnUse" markerWidth="11" markerHeight="11" orient="auto"><circle cx="5" cy="5" r="5" class="arrowMarkerPath" style="stroke-width: 1; stroke-dasharray: 1, 0;"/></marker><marker id="mermaid-svg_flowchart-v2-crossEnd" class="marker cross flowchart-v2" viewBox="0 0 11 11" refX="12" refY="5.2" markerUnits="userSpaceOnUse" markerWidth="11" markerHeight="11" orient="auto"><path d="M 1,1 l 9,9 M 10,1 l -9,9" class="arrowMarkerPath" style="stroke-width: 2; stroke-dasharray: 1, 0;"/></marker><marker id="mermaid-svg_flowchart-v2-crossStart" class="marker cross flowchart-v2" viewBox="0 0 11 11" refX="-1" refY="5.2" markerUnits="userSpaceOnUse" markerWidth="11" markerHeight="11" orient="auto"><path d="M 1,1 l 9,9 M 10,1 l -9,9" class="arrowMarkerPath" style="stroke-width: 2; stroke-dasharray: 1, 0;"/></marker><g class="root"><g class="clusters"><g class="cluster " id="BACKEND" data-look="classic"><rect style="" x="8" y="888" width="863.69921875" height="1557.8049011230469"/><g class="cluster-label " transform="translate(339.849609375, 898)"><foreignObject width="200" height="60"><div xmlns="http://www.w3.org/1999/xhtml" style="display: table; white-space: break-spaces; line-height: 1.5; max-width: 200px; text-align: center; width: 200px;"><span class="nodeLabel "><p>Backend — Node.js 22 + Express 5</p></span></div></foreignObject></g></g><g class="cluster " id="FRONTEND" data-look="classic"><rect style="" x="891.69921875" y="-17" width="690.38671875" height="1835"/><g class="cluster-label " transform="translate(1136.892578125, -7)"><foreignObject width="200" height="60"><div xmlns="http://www.w3.org/1999/xhtml" style="display: table; white-space: break-spaces; line-height: 1.5; max-width: 200px; text-align: center; width: 200px;"><span class="nodeLabel "><p>Frontend — React 19 PWA</p></span></div></foreignObject></g></g></g><g class="edgePaths"><path d="M1034.813,166L1027.877,170.167C1020.942,174.333,1007.071,182.667,1000.135,202.5C993.199,222.333,993.199,253.667,993.199,285C993.199,316.333,993.199,347.667,993.199,376.5C993.199,405.333,993.199,431.667,993.199,458C993.199,484.333,993.199,510.667,993.199,539.5C993.199,568.333,993.199,599.667,993.199,631C993.199,662.333,993.199,693.667,997.632,713.07C1002.065,732.474,1010.93,739.948,1015.363,743.685L1019.795,747.422" id="L_UI_GW_0" class=" edge-thickness-normal edge-pattern-solid edge-thickness-normal edge-pattern-solid flowchart-link" style=";" data-edge="true" data-et="edge" data-id="L_UI_GW_0" data-points="W3sieCI6MTAzNC44MTMxNDI4MDA2MzMsInkiOjE2Nn0seyJ4Ijo5OTMuMTk5MjE4NzUsInkiOjE5MX0seyJ4Ijo5OTMuMTk5MjE4NzUsInkiOjI4NX0seyJ4Ijo5OTMuMTk5MjE4NzUsInkiOjM3OX0seyJ4Ijo5OTMuMTk5MjE4NzUsInkiOjQ1OH0seyJ4Ijo5OTMuMTk5MjE4NzUsInkiOjUzN30seyJ4Ijo5OTMuMTk5MjE4NzUsInkiOjYzMX0seyJ4Ijo5OTMuMTk5MjE4NzUsInkiOjcyNX0seyJ4IjoxMDIyLjg1MzQ3NDA2OTE0ODksInkiOjc1MH1d" marker-end="url(#mermaid-svg_flowchart-v2-pointEnd)"/><path d="M1127.013,354L1121.627,358.167C1116.242,362.333,1105.47,370.667,1100.085,388C1094.699,405.333,1094.699,431.667,1094.699,458C1094.699,484.333,1094.699,510.667,1094.699,539.5C1094.699,568.333,1094.699,599.667,1094.699,631C1094.699,662.333,1094.699,693.667,1095.072,712.837C1095.445,732.007,1096.19,739.015,1096.563,742.519L1096.936,746.022" id="L_ST_GW_0" class=" edge-thickness-normal edge-pattern-solid edge-thickness-normal edge-pattern-solid flowchart-link" style=";" data-edge="true" data-et="edge" data-id="L_ST_GW_0" data-points="W3sieCI6MTEyNy4wMTMwNDg1MzcyMzQsInkiOjM1NH0seyJ4IjoxMDk0LjY5OTIxODc1LCJ5IjozNzl9LHsieCI6MTA5NC42OTkyMTg3NSwieSI6NDU4fSx7IngiOjEwOTQuNjk5MjE4NzUsInkiOjUzN30seyJ4IjoxMDk0LjY5OTIxODc1LCJ5Ijo2MzF9LHsieCI6MTA5NC42OTkyMTg3NSwieSI6NzI1fSx7IngiOjEwOTcuMzU4NzkzMjE4MDg1LCJ5Ijo3NTB9XQ==" marker-end="url(#mermaid-svg_flowchart-v2-pointEnd)"/><path d="M1245.042,512L1240.216,516.167C1235.39,520.333,1225.738,528.667,1220.912,548.5C1216.086,568.333,1216.086,599.667,1216.086,631C1216.086,662.333,1216.086,693.667,1211.658,713.07C1207.23,732.473,1198.374,739.947,1193.947,743.684L1189.519,747.42" id="L_RT_GW_0" class=" edge-thickness-normal edge-pattern-solid edge-thickness-normal edge-pattern-solid flowchart-link" style=";" data-edge="true" data-et="edge" data-id="L_RT_GW_0" data-points="W3sieCI6MTI0NS4wNDE2MzM3MDI1MzE3LCJ5Ijo1MTJ9LHsieCI6MTIxNi4wODU5Mzc1LCJ5Ijo1Mzd9LHsieCI6MTIxNi4wODU5Mzc1LCJ5Ijo2MzF9LHsieCI6MTIxNi4wODU5Mzc1LCJ5Ijo3MjV9LHsieCI6MTE4Ni40NjE4MTAxNzI4NzI0LCJ5Ijo3NTB9XQ==" marker-end="url(#mermaid-svg_flowchart-v2-pointEnd)"/><path d="M1339.261,700L1335.649,704.167C1332.036,708.333,1324.811,716.667,1310.994,725.339C1297.177,734.012,1276.768,743.023,1266.563,747.529L1256.358,752.035" id="L_AU_GW_0" class=" edge-thickness-normal edge-pattern-solid edge-thickness-normal edge-pattern-solid flowchart-link" style=";" data-edge="true" data-et="edge" data-id="L_AU_GW_0" data-points="W3sieCI6MTMzOS4yNjE0Njk0MTQ4OTM2LCJ5Ijo3MDB9LHsieCI6MTMxNy41ODU5Mzc1LCJ5Ijo3MjV9LHsieCI6MTI1Mi42OTkyMTg3NSwieSI6NzUzLjY1MDY5MDgzODM2NH1d" marker-end="url(#mermaid-svg_flowchart-v2-pointEnd)"/><path d="M1008.173,888L1002.344,892.167C996.515,896.333,984.857,904.667,979.028,913C973.199,921.333,973.199,929.667,876.874,946.238C780.549,962.81,587.899,987.62,491.574,1000.025L395.248,1012.429" id="L_GW_CT_0" class=" edge-thickness-normal edge-pattern-solid edge-thickness-normal edge-pattern-solid flowchart-link" style=";" data-edge="true" data-et="edge" data-id="L_GW_CT_0" data-points="W3sieCI6MTAwOC4xNzI2MjMwMDUzMTkxLCJ5Ijo4ODh9LHsieCI6OTczLjE5OTIxODc1LCJ5Ijo5MTN9LHsieCI6OTczLjE5OTIxODc1LCJ5Ijo5Mzh9LHsieCI6MzkxLjI4MTI1LCJ5IjoxMDEyLjk0MDMyMzk4NzYwNTd9XQ==" marker-end="url(#mermaid-svg_flowchart-v2-pointEnd)"/><path d="M1037.534,888L1033.478,892.167C1029.423,896.333,1021.311,904.667,1017.255,913C1013.199,921.333,1013.199,929.667,1013.199,949.5C1013.199,969.333,1013.199,1000.667,1013.199,1032C1013.199,1063.333,1013.199,1094.667,909.758,1121.074C806.316,1147.482,599.432,1168.964,495.991,1179.705L392.549,1190.446" id="L_GW_SK_0" class=" edge-thickness-normal edge-pattern-solid edge-thickness-normal edge-pattern-solid flowchart-link" style=";" data-edge="true" data-et="edge" data-id="L_GW_SK_0" data-points="W3sieCI6MTAzNy41MzQzMjUxMzI5Nzg3LCJ5Ijo4ODh9LHsieCI6MTAxMy4xOTkyMTg3NSwieSI6OTEzfSx7IngiOjEwMTMuMTk5MjE4NzUsInkiOjkzOH0seyJ4IjoxMDEzLjE5OTIxODc1LCJ5IjoxMDMyfSx7IngiOjEwMTMuMTk5MjE4NzUsInkiOjExMjZ9LHsieCI6Mzg4LjU3MDMxMjUsInkiOjExOTAuODU4ODU4NDQyNTY1NH1d" marker-end="url(#mermaid-svg_flowchart-v2-pointEnd)"/><path d="M1252.699,873.688L1270.43,880.24C1288.161,886.792,1323.624,899.896,1341.355,910.615C1359.086,921.333,1359.086,929.667,1359.086,949.5C1359.086,969.333,1359.086,1000.667,1359.086,1032C1359.086,1063.333,1359.086,1094.667,1359.086,1123.5C1359.086,1152.333,1359.086,1178.667,1359.086,1205C1359.086,1231.333,1359.086,1257.667,1259.585,1283.321C1160.085,1308.976,961.083,1333.951,861.583,1346.439L762.082,1358.927" id="L_GW_AI_0" class=" edge-thickness-normal edge-pattern-solid edge-thickness-normal edge-pattern-solid flowchart-link" style=";" data-edge="true" data-et="edge" data-id="L_GW_AI_0" data-points="W3sieCI6MTI1Mi42OTkyMTg3NSwieSI6ODczLjY4ODM4OTY2MjYzODR9LHsieCI6MTM1OS4wODU5Mzc1LCJ5Ijo5MTN9LHsieCI6MTM1OS4wODU5Mzc1LCJ5Ijo5Mzh9LHsieCI6MTM1OS4wODU5Mzc1LCJ5IjoxMDMyfSx7IngiOjEzNTkuMDg1OTM3NSwieSI6MTEyNn0seyJ4IjoxMzU5LjA4NTkzNzUsInkiOjEyMDV9LHsieCI6MTM1OS4wODU5Mzc1LCJ5IjoxMjg0fSx7IngiOjc1OC4xMTMyODEyNSwieSI6MTM1OS40MjUyMjMwOTIwNDc5fV0=" marker-end="url(#mermaid-svg_flowchart-v2-pointEnd)"/><path d="M1252.699,866.258L1277.097,874.048C1301.495,881.838,1350.29,897.419,1374.688,909.376C1399.086,921.333,1399.086,929.667,1399.086,949.5C1399.086,969.333,1399.086,1000.667,1399.086,1032C1399.086,1063.333,1399.086,1094.667,1399.086,1123.5C1399.086,1152.333,1399.086,1178.667,1399.086,1205C1399.086,1231.333,1399.086,1257.667,1399.086,1286.5C1399.086,1315.333,1399.086,1346.667,1399.086,1378C1399.086,1409.333,1399.086,1440.667,1399.086,1469.5C1399.086,1498.333,1399.086,1524.667,1399.086,1551C1399.086,1577.333,1399.086,1603.667,1399.086,1620.333C1399.086,1637,1399.086,1644,1399.086,1647.5L1399.086,1651" id="L_GW_PW_0" class=" edge-thickness-normal edge-pattern-solid edge-thickness-normal edge-pattern-solid flowchart-link" style=";" data-edge="true" data-et="edge" data-id="L_GW_PW_0" data-points="W3sieCI6MTI1Mi42OTkyMTg3NSwieSI6ODY2LjI1NzU2NjcxMDQ1NDd9LHsieCI6MTM5OS4wODU5Mzc1LCJ5Ijo5MTN9LHsieCI6MTM5OS4wODU5Mzc1LCJ5Ijo5Mzh9LHsieCI6MTM5OS4wODU5Mzc1LCJ5IjoxMDMyfSx7IngiOjEzOTkuMDg1OTM3NSwieSI6MTEyNn0seyJ4IjoxMzk5LjA4NTkzNzUsInkiOjEyMDV9LHsieCI6MTM5OS4wODU5Mzc1LCJ5IjoxMjg0fSx7IngiOjEzOTkuMDg1OTM3NSwieSI6MTM3OH0seyJ4IjoxMzk5LjA4NTkzNzUsInkiOjE0NzJ9LHsieCI6MTM5OS4wODU5Mzc1LCJ5IjoxNTUxfSx7IngiOjEzOTkuMDg1OTM3NSwieSI6MTYzMH0seyJ4IjoxMzk5LjA4NTkzNzUsInkiOjE2NTV9XQ==" marker-end="url(#mermaid-svg_flowchart-v2-pointEnd)"/><path d="M1252.699,869.702L1273.764,876.918C1294.828,884.135,1336.957,898.567,1358.021,909.95C1379.086,921.333,1379.086,929.667,1379.086,949.5C1379.086,969.333,1379.086,1000.667,1379.086,1032C1379.086,1063.333,1379.086,1094.667,1379.086,1123.5C1379.086,1152.333,1379.086,1178.667,1379.086,1205C1379.086,1231.333,1379.086,1257.667,1379.086,1286.5C1379.086,1315.333,1379.086,1346.667,1379.086,1378C1379.086,1409.333,1379.086,1440.667,1288.274,1466.823C1197.463,1492.979,1015.839,1513.958,925.027,1524.448L834.216,1534.937" id="L_GW_BJ_0" class=" edge-thickness-normal edge-pattern-solid edge-thickness-normal edge-pattern-solid flowchart-link" style=";" data-edge="true" data-et="edge" data-id="L_GW_BJ_0" data-points="W3sieCI6MTI1Mi42OTkyMTg3NSwieSI6ODY5LjcwMjE2MjQ5MzA1OTl9LHsieCI6MTM3OS4wODU5Mzc1LCJ5Ijo5MTN9LHsieCI6MTM3OS4wODU5Mzc1LCJ5Ijo5Mzh9LHsieCI6MTM3OS4wODU5Mzc1LCJ5IjoxMDMyfSx7IngiOjEzNzkuMDg1OTM3NSwieSI6MTEyNn0seyJ4IjoxMzc5LjA4NTkzNzUsInkiOjEyMDV9LHsieCI6MTM3OS4wODU5Mzc1LCJ5IjoxMjg0fSx7IngiOjEzNzkuMDg1OTM3NSwieSI6MTM3OH0seyJ4IjoxMzc5LjA4NTkzNzUsInkiOjE0NzJ9LHsieCI6ODMwLjI0MjE4NzUsInkiOjE1MzUuMzk2MzY1MjE0ODA4Nn1d" marker-end="url(#mermaid-svg_flowchart-v2-pointEnd)"/><path d="M375.621,1101L383.613,1105.167C391.604,1109.333,407.587,1117.667,415.579,1135C423.57,1152.333,423.57,1178.667,423.57,1205C423.57,1231.333,423.57,1257.667,423.57,1286.5C423.57,1315.333,423.57,1346.667,423.57,1378C423.57,1409.333,423.57,1440.667,423.57,1469.5C423.57,1498.333,423.57,1524.667,423.57,1551C423.57,1577.333,423.57,1603.667,423.57,1632.5C423.57,1661.333,423.57,1692.667,423.57,1724C423.57,1755.333,423.57,1786.667,423.57,1806.5C423.57,1826.333,423.57,1834.667,427.271,1843.296C430.972,1851.926,438.374,1860.852,442.074,1865.316L445.775,1869.779" id="L_CT_MG_0" class=" edge-thickness-normal edge-pattern-solid edge-thickness-normal edge-pattern-solid flowchart-link" style=";" data-edge="true" data-et="edge" data-id="L_CT_MG_0" data-points="W3sieCI6Mzc1LjYyMTA5Mzc1LCJ5IjoxMTAxfSx7IngiOjQyMy41NzAzMTI1LCJ5IjoxMTI2fSx7IngiOjQyMy41NzAzMTI1LCJ5IjoxMjA1fSx7IngiOjQyMy41NzAzMTI1LCJ5IjoxMjg0fSx7IngiOjQyMy41NzAzMTI1LCJ5IjoxMzc4fSx7IngiOjQyMy41NzAzMTI1LCJ5IjoxNDcyfSx7IngiOjQyMy41NzAzMTI1LCJ5IjoxNTUxfSx7IngiOjQyMy41NzAzMTI1LCJ5IjoxNjMwfSx7IngiOjQyMy41NzAzMTI1LCJ5IjoxNzI0fSx7IngiOjQyMy41NzAzMTI1LCJ5IjoxODE4fSx7IngiOjQyMy41NzAzMTI1LCJ5IjoxODQzfSx7IngiOjQ0OC4zMjg1MzQ3ODM3MjkzLCJ5IjoxODcyLjg1Nzg4MDU1NDMzMX1d" marker-end="url(#mermaid-svg_flowchart-v2-pointEnd)"/><path d="M124.303,1101L117.119,1105.167C109.934,1109.333,95.565,1117.667,88.38,1135C81.195,1152.333,81.195,1178.667,81.195,1205C81.195,1231.333,81.195,1257.667,81.195,1286.5C81.195,1315.333,81.195,1346.667,81.195,1378C81.195,1409.333,81.195,1440.667,81.195,1469.5C81.195,1498.333,81.195,1524.667,81.195,1551C81.195,1577.333,81.195,1603.667,81.195,1632.5C81.195,1661.333,81.195,1692.667,81.195,1724C81.195,1755.333,81.195,1786.667,81.195,1806.5C81.195,1826.333,81.195,1834.667,81.195,1856.511C81.195,1878.356,81.195,1913.713,81.195,1949.069C81.195,1984.425,81.195,2019.781,81.195,2055.138C81.195,2090.494,81.195,2125.85,81.195,2161.206C81.195,2196.563,81.195,2231.919,84.622,2253.837C88.05,2275.756,94.904,2284.236,98.331,2288.477L101.758,2292.717" id="L_CT_CL_0" class=" edge-thickness-normal edge-pattern-solid edge-thickness-normal edge-pattern-solid flowchart-link" style=";" data-edge="true" data-et="edge" data-id="L_CT_CL_0" data-points="W3sieCI6MTI0LjMwMzI3NDYwMTA2MzgzLCJ5IjoxMTAxfSx7IngiOjgxLjE5NTMxMjUsInkiOjExMjZ9LHsieCI6ODEuMTk1MzEyNSwieSI6MTIwNX0seyJ4Ijo4MS4xOTUzMTI1LCJ5IjoxMjg0fSx7IngiOjgxLjE5NTMxMjUsInkiOjEzNzh9LHsieCI6ODEuMTk1MzEyNSwieSI6MTQ3Mn0seyJ4Ijo4MS4xOTUzMTI1LCJ5IjoxNTUxfSx7IngiOjgxLjE5NTMxMjUsInkiOjE2MzB9LHsieCI6ODEuMTk1MzEyNSwieSI6MTcyNH0seyJ4Ijo4MS4xOTUzMTI1LCJ5IjoxODE4fSx7IngiOjgxLjE5NTMxMjUsInkiOjE4NDN9LHsieCI6ODEuMTk1MzEyNSwieSI6MTk0OS4wNjg3NzEzNjIzMDQ3fSx7IngiOjgxLjE5NTMxMjUsInkiOjIwNTUuMTM3NTQyNzI0NjA5NH0seyJ4Ijo4MS4xOTUzMTI1LCJ5IjoyMTYxLjIwNjMxNDA4NjkxNH0seyJ4Ijo4MS4xOTUzMTI1LCJ5IjoyMjY3LjI3NTA4NTQ0OTIxODh9LHsieCI6MTA0LjI3MjI1MjY3MDc1MDI1LCJ5IjoyMjk1LjgyNzgyOTQ3Nzk0NjZ9XQ==" marker-end="url(#mermaid-svg_flowchart-v2-pointEnd)"/><path d="M252.383,1259L252.383,1263.167C252.383,1267.333,252.383,1275.667,252.383,1295.5C252.383,1315.333,252.383,1346.667,252.383,1378C252.383,1409.333,252.383,1440.667,252.383,1469.5C252.383,1498.333,252.383,1524.667,252.383,1551C252.383,1577.333,252.383,1603.667,252.383,1632.5C252.383,1661.333,252.383,1692.667,252.383,1724C252.383,1755.333,252.383,1786.667,252.383,1806.5C252.383,1826.333,252.383,1834.667,252.383,1856.511C252.383,1878.356,252.383,1913.713,252.383,1949.069C252.383,1984.425,252.383,2019.781,259.434,2044.73C266.486,2069.678,280.589,2084.219,287.64,2091.489L294.692,2098.759" id="L_SK_RD_0" class=" edge-thickness-normal edge-pattern-solid edge-thickness-normal edge-pattern-solid flowchart-link" style=";" data-edge="true" data-et="edge" data-id="L_SK_RD_0" data-points="W3sieCI6MjUyLjM4MjgxMjUsInkiOjEyNTl9LHsieCI6MjUyLjM4MjgxMjUsInkiOjEyODR9LHsieCI6MjUyLjM4MjgxMjUsInkiOjEzNzh9LHsieCI6MjUyLjM4MjgxMjUsInkiOjE0NzJ9LHsieCI6MjUyLjM4MjgxMjUsInkiOjE1NTF9LHsieCI6MjUyLjM4MjgxMjUsInkiOjE2MzB9LHsieCI6MjUyLjM4MjgxMjUsInkiOjE3MjR9LHsieCI6MjUyLjM4MjgxMjUsInkiOjE4MTh9LHsieCI6MjUyLjM4MjgxMjUsInkiOjE4NDN9LHsieCI6MjUyLjM4MjgxMjUsInkiOjE5NDkuMDY4NzcxMzYyMzA0N30seyJ4IjoyNTIuMzgyODEyNSwieSI6MjA1NS4xMzc1NDI3MjQ2MDk0fSx7IngiOjI5Ny40NzY1NjI1LCJ5IjoyMTAxLjYzMDQyMTQzMTQzfV0=" marker-end="url(#mermaid-svg_flowchart-v2-pointEnd)"/><path d="M547.688,1447L543.918,1451.167C540.149,1455.333,532.61,1463.667,528.84,1481C525.07,1498.333,525.07,1524.667,525.07,1551C525.07,1577.333,525.07,1603.667,525.07,1632.5C525.07,1661.333,525.07,1692.667,525.07,1724C525.07,1755.333,525.07,1786.667,525.07,1806.5C525.07,1826.333,525.07,1834.667,525.187,1842.334C525.304,1850.002,525.538,1857.005,525.655,1860.506L525.772,1864.007" id="L_AI_MG_0" class=" edge-thickness-normal edge-pattern-solid edge-thickness-normal edge-pattern-solid flowchart-link" style=";" data-edge="true" data-et="edge" data-id="L_AI_MG_0" data-points="W3sieCI6NTQ3LjY4ODEyMzMzNzc2NiwieSI6MTQ0N30seyJ4Ijo1MjUuMDcwMzEyNSwieSI6MTQ3Mn0seyJ4Ijo1MjUuMDcwMzEyNSwieSI6MTU1MX0seyJ4Ijo1MjUuMDcwMzEyNSwieSI6MTYzMH0seyJ4Ijo1MjUuMDcwMzEyNSwieSI6MTcyNH0seyJ4Ijo1MjUuMDcwMzEyNSwieSI6MTgxOH0seyJ4Ijo1MjUuMDcwMzEyNSwieSI6MTg0M30seyJ4Ijo1MjUuOTA1Mzc2NTU5MDI4OCwieSI6MTg2OC4wMDQ2OTA1ODI2MjE2fV0=" marker-end="url(#mermaid-svg_flowchart-v2-pointEnd)"/><path d="M695.156,1605L695.156,1609.167C695.156,1613.333,695.156,1621.667,695.156,1641.5C695.156,1661.333,695.156,1692.667,695.156,1724C695.156,1755.333,695.156,1786.667,695.156,1806.5C695.156,1826.333,695.156,1834.667,686.554,1846.843C677.951,1859.019,660.746,1875.038,652.143,1883.048L643.541,1891.058" id="L_BJ_MG_0" class=" edge-thickness-normal edge-pattern-solid edge-thickness-normal edge-pattern-solid flowchart-link" style=";" data-edge="true" data-et="edge" data-id="L_BJ_MG_0" data-points="W3sieCI6Njk1LjE1NjI1LCJ5IjoxNjA1fSx7IngiOjY5NS4xNTYyNSwieSI6MTYzMH0seyJ4Ijo2OTUuMTU2MjUsInkiOjE3MjR9LHsieCI6Njk1LjE1NjI1LCJ5IjoxODE4fSx7IngiOjY5NS4xNTYyNSwieSI6MTg0M30seyJ4Ijo2NDAuNjEzMjgxMjUsInkiOjE4OTMuNzgzNDYxMTg3MTA4N31d" marker-end="url(#mermaid-svg_flowchart-v2-pointEnd)"/><path d="M560.07,1576.368L512.471,1585.307C464.872,1594.245,369.674,1612.123,322.076,1636.728C274.477,1661.333,274.477,1692.667,274.477,1724C274.477,1755.333,274.477,1786.667,274.477,1806.5C274.477,1826.333,274.477,1834.667,274.477,1856.511C274.477,1878.356,274.477,1913.713,274.477,1949.069C274.477,1984.425,274.477,2019.781,279.33,2042.768C284.183,2065.755,293.89,2076.373,298.743,2081.681L303.597,2086.99" id="L_BJ_RD_0" class=" edge-thickness-normal edge-pattern-solid edge-thickness-normal edge-pattern-solid flowchart-link" style=";" data-edge="true" data-et="edge" data-id="L_BJ_RD_0" data-points="W3sieCI6NTYwLjA3MDMxMjUsInkiOjE1NzYuMzY3OTY4NTAzMzUyMX0seyJ4IjoyNzQuNDc2NTYyNSwieSI6MTYzMH0seyJ4IjoyNzQuNDc2NTYyNSwieSI6MTcyNH0seyJ4IjoyNzQuNDc2NTYyNSwieSI6MTgxOH0seyJ4IjoyNzQuNDc2NTYyNSwieSI6MTg0M30seyJ4IjoyNzQuNDc2NTYyNSwieSI6MTk0OS4wNjg3NzEzNjIzMDQ3fSx7IngiOjI3NC40NzY1NjI1LCJ5IjoyMDU1LjEzNzU0MjcyNDYwOTR9LHsieCI6MzA2LjI5NTU0MTQxOTU1MjQsInkiOjIwODkuOTQyMzY2MDIzNzc3Nn1d" marker-end="url(#mermaid-svg_flowchart-v2-pointEnd)"/><path d="M1187.244,166L1192.069,170.167C1196.895,174.333,1206.547,182.667,1211.373,191C1216.199,199.333,1216.199,207.667,1216.199,211.833L1216.199,216" id="L_UI_ST_0" class=" edge-thickness-normal edge-pattern-dotted edge-thickness-normal edge-pattern-solid flowchart-link" style=";" data-edge="true" data-et="edge" data-id="L_UI_ST_0" data-points="W3sieCI6MTE4Ny4yNDM1MjI1NDc0NjgzLCJ5IjoxNjZ9LHsieCI6MTIxNi4xOTkyMTg3NSwieSI6MTkxfSx7IngiOjEyMTYuMTk5MjE4NzUsInkiOjIxNn1d"/><path d="M1283.281,354L1287.332,358.167C1291.383,362.333,1299.484,370.667,1303.535,379C1307.586,387.333,1307.586,395.667,1307.586,399.833L1307.586,404" id="L_ST_RT_0" class=" edge-thickness-normal edge-pattern-dotted edge-thickness-normal edge-pattern-solid flowchart-link" style=";" data-edge="true" data-et="edge" data-id="L_ST_RT_0" data-points="W3sieCI6MTI4My4yODA5NTkxMDkwNDI3LCJ5IjozNTR9LHsieCI6MTMwNy41ODU5Mzc1LCJ5IjozNzl9LHsieCI6MTMwNy41ODU5Mzc1LCJ5Ijo0MDR9XQ=="/><path d="M1370.13,512L1374.956,516.167C1379.782,520.333,1389.434,528.667,1394.26,537C1399.086,545.333,1399.086,553.667,1399.086,557.833L1399.086,562" id="L_RT_AU_0" class=" edge-thickness-normal edge-pattern-dotted edge-thickness-normal edge-pattern-solid flowchart-link" style=";" data-edge="true" data-et="edge" data-id="L_RT_AU_0" data-points="W3sieCI6MTM3MC4xMzAyNDEyOTc0NjgzLCJ5Ijo1MTJ9LHsieCI6MTM5OS4wODU5Mzc1LCJ5Ijo1Mzd9LHsieCI6MTM5OS4wODU5Mzc1LCJ5Ijo1NjJ9XQ=="/><path d="M1458.91,700L1462.523,704.167C1466.136,708.333,1473.361,716.667,1438.992,730.331C1404.624,743.996,1328.661,762.993,1290.68,772.491L1252.699,781.989" id="L_AU_GW_2" class=" edge-thickness-normal edge-pattern-dotted edge-thickness-normal edge-pattern-solid flowchart-link" style=";" data-edge="true" data-et="edge" data-id="L_AU_GW_2" data-points="W3sieCI6MTQ1OC45MTA0MDU1ODUxMDY0LCJ5Ijo3MDB9LHsieCI6MTQ4MC41ODU5Mzc1LCJ5Ijo3MjV9LHsieCI6MTI1Mi42OTkyMTg3NSwieSI6NzgxLjk4ODg0OTI4MzQ2NTF9XQ=="/><path d="M1022.853,888L1017.911,892.167C1012.969,896.333,1003.084,904.667,998.142,913C993.199,921.333,993.199,929.667,892.88,946.408C792.56,963.15,591.921,988.299,491.601,1000.874L391.281,1013.449" id="L_GW_CT_2" class=" edge-thickness-normal edge-pattern-dotted edge-thickness-normal edge-pattern-solid flowchart-link" style=";" data-edge="true" data-et="edge" data-id="L_GW_CT_2" data-points="W3sieCI6MTAyMi44NTM0NzQwNjkxNDg5LCJ5Ijo4ODh9LHsieCI6OTkzLjE5OTIxODc1LCJ5Ijo5MTN9LHsieCI6OTkzLjE5OTIxODc1LCJ5Ijo5Mzh9LHsieCI6MzkxLjI4MTI1LCJ5IjoxMDEzLjQ0ODYzNzYxMTQwNTR9XQ=="/><path d="M249.962,1101L250.366,1105.167C250.769,1109.333,251.576,1117.667,251.979,1126C252.383,1134.333,252.383,1142.667,252.383,1146.833L252.383,1151" id="L_CT_SK_0" class=" edge-thickness-normal edge-pattern-dotted edge-thickness-normal edge-pattern-solid flowchart-link" style=";" data-edge="true" data-et="edge" data-id="L_CT_SK_0" data-points="W3sieCI6MjQ5Ljk2MjE4NDE3NTUzMTkyLCJ5IjoxMTAxfSx7IngiOjI1Mi4zODI4MTI1LCJ5IjoxMTI2fSx7IngiOjI1Mi4zODI4MTI1LCJ5IjoxMTUxfV0="/><path d="M388.57,1235.075L425.494,1243.229C462.418,1251.383,536.266,1267.692,573.189,1280.013C610.113,1292.333,610.113,1300.667,610.113,1304.833L610.113,1309" id="L_SK_AI_0" class=" edge-thickness-normal edge-pattern-dotted edge-thickness-normal edge-pattern-solid flowchart-link" style=";" data-edge="true" data-et="edge" data-id="L_SK_AI_0" data-points="W3sieCI6Mzg4LjU3MDMxMjUsInkiOjEyMzUuMDc1MTkxOTEwODA5M30seyJ4Ijo2MTAuMTEzMjgxMjUsInkiOjEyODR9LHsieCI6NjEwLjExMzI4MTI1LCJ5IjoxMzA5fV0="/><path d="M672.538,1447L676.308,1451.167C680.078,1455.333,687.617,1463.667,691.387,1472C695.156,1480.333,695.156,1488.667,695.156,1492.833L695.156,1497" id="L_AI_BJ_0" class=" edge-thickness-normal edge-pattern-dotted edge-thickness-normal edge-pattern-solid flowchart-link" style=";" data-edge="true" data-et="edge" data-id="L_AI_BJ_0" data-points="W3sieCI6NjcyLjUzODQzOTE2MjIzNCwieSI6MTQ0N30seyJ4Ijo2OTUuMTU2MjUsInkiOjE0NzJ9LHsieCI6Njk1LjE1NjI1LCJ5IjoxNDk3fV0="/><path d="M753.287,1605L757.772,1609.167C762.258,1613.333,771.228,1621.667,854.195,1637.753C937.161,1653.84,1094.124,1677.681,1172.605,1689.601L1251.086,1701.521" id="L_BJ_PW_0" class=" edge-thickness-normal edge-pattern-dotted edge-thickness-normal edge-pattern-solid flowchart-link" style=";" data-edge="true" data-et="edge" data-id="L_BJ_PW_0" data-points="W3sieCI6NzUzLjI4Njg4Njg2NzA4ODYsInkiOjE2MDV9LHsieCI6NzgwLjE5OTIxODc1LCJ5IjoxNjMwfSx7IngiOjEyNTEuMDg1OTM3NSwieSI6MTcwMS41MjA5MjY1NjI5NDM3fV0="/><path d="M1399.086,1793L1399.086,1797.167C1399.086,1801.333,1399.086,1809.667,1295.938,1818C1192.79,1826.333,986.495,1834.667,860.083,1848.642C733.671,1862.617,687.142,1882.233,663.878,1892.041L640.613,1901.85" id="L_PW_MG_0" class=" edge-thickness-normal edge-pattern-dotted edge-thickness-normal edge-pattern-solid flowchart-link" style=";" data-edge="true" data-et="edge" data-id="L_PW_MG_0" data-points="W3sieCI6MTM5OS4wODU5Mzc1LCJ5IjoxNzkzfSx7IngiOjEzOTkuMDg1OTM3NSwieSI6MTgxOH0seyJ4Ijo3ODAuMTk5MjE4NzUsInkiOjE4NDN9LHsieCI6NjQwLjYxMzI4MTI1LCJ5IjoxOTAxLjg0OTUwODk4NzY4MTJ9XQ=="/><path d="M528.613,2030.138L528.613,2034.304C528.613,2038.471,528.613,2046.804,523.933,2056.255C519.253,2065.705,509.893,2076.273,505.213,2081.557L500.533,2086.841" id="L_MG_RD_0" class=" edge-thickness-normal edge-pattern-dotted edge-thickness-normal edge-pattern-solid flowchart-link" style=";" data-edge="true" data-et="edge" data-id="L_MG_RD_0" data-points="W3sieCI6NTI4LjYxMzI4MTI1LCJ5IjoyMDMwLjEzNzU0MjcyNDYwOTR9LHsieCI6NTI4LjYxMzI4MTI1LCJ5IjoyMDU1LjEzNzU0MjcyNDYwOTR9LHsieCI6NTAwLjUzMzIxNjQ5MTEwNDQ0LCJ5IjoyMDg2Ljg0MDYwNTgwOTQ0NH1d"/><path d="M409.477,2242.275L409.477,2246.442C409.477,2250.608,409.477,2258.942,383.728,2272.456C357.979,2285.971,306.482,2304.666,280.733,2314.014L254.984,2323.362" id="L_RD_CL_0" class=" edge-thickness-normal edge-pattern-dotted edge-thickness-normal edge-pattern-solid flowchart-link" style=";" data-edge="true" data-et="edge" data-id="L_RD_CL_0" data-points="W3sieCI6NDA5LjQ3NjU2MjUsInkiOjIyNDIuMjc1MDg1NDQ5MjE4OH0seyJ4Ijo0MDkuNDc2NTYyNSwieSI6MjI2Ny4yNzUwODU0NDkyMTg4fSx7IngiOjI1NC45ODQzNzUsInkiOjIzMjMuMzYxNjg1MTUyOTMyM31d"/></g><g class="edgeLabels"><g class="edgeLabel"><g class="label" data-id="L_UI_GW_0" transform="translate(0, 0)"><foreignObject width="0" height="0"><div xmlns="http://www.w3.org/1999/xhtml" class="labelBkg" style="display: table-cell; white-space: nowrap; line-height: 1.5; max-width: 200px; text-align: center;"><span class="edgeLabel "></span></div></foreignObject></g></g><g class="edgeLabel"><g class="label" data-id="L_ST_GW_0" transform="translate(0, 0)"><foreignObject width="0" height="0"><div xmlns="http://www.w3.org/1999/xhtml" class="labelBkg" style="display: table-cell; white-space: nowrap; line-height: 1.5; max-width: 200px; text-align: center;"><span class="edgeLabel "></span></div></foreignObject></g></g><g class="edgeLabel"><g class="label" data-id="L_RT_GW_0" transform="translate(0, 0)"><foreignObject width="0" height="0"><div xmlns="http://www.w3.org/1999/xhtml" class="labelBkg" style="display: table-cell; white-space: nowrap; line-height: 1.5; max-width: 200px; text-align: center;"><span class="edgeLabel "></span></div></foreignObject></g></g><g class="edgeLabel"><g class="label" data-id="L_AU_GW_0" transform="translate(0, 0)"><foreignObject width="0" height="0"><div xmlns="http://www.w3.org/1999/xhtml" class="labelBkg" style="display: table-cell; white-space: nowrap; line-height: 1.5; max-width: 200px; text-align: center;"><span class="edgeLabel "></span></div></foreignObject></g></g><g class="edgeLabel"><g class="label" data-id="L_GW_CT_0" transform="translate(0, 0)"><foreignObject width="0" height="0"><div xmlns="http://www.w3.org/1999/xhtml" class="labelBkg" style="display: table-cell; white-space: nowrap; line-height: 1.5; max-width: 200px; text-align: center;"><span class="edgeLabel "></span></div></foreignObject></g></g><g class="edgeLabel"><g class="label" data-id="L_GW_SK_0" transform="translate(0, 0)"><foreignObject width="0" height="0"><div xmlns="http://www.w3.org/1999/xhtml" class="labelBkg" style="display: table-cell; white-space: nowrap; line-height: 1.5; max-width: 200px; text-align: center;"><span class="edgeLabel "></span></div></foreignObject></g></g><g class="edgeLabel"><g class="label" data-id="L_GW_AI_0" transform="translate(0, 0)"><foreignObject width="0" height="0"><div xmlns="http://www.w3.org/1999/xhtml" class="labelBkg" style="display: table-cell; white-space: nowrap; line-height: 1.5; max-width: 200px; text-align: center;"><span class="edgeLabel "></span></div></foreignObject></g></g><g class="edgeLabel"><g class="label" data-id="L_GW_PW_0" transform="translate(0, 0)"><foreignObject width="0" height="0"><div xmlns="http://www.w3.org/1999/xhtml" class="labelBkg" style="display: table-cell; white-space: nowrap; line-height: 1.5; max-width: 200px; text-align: center;"><span class="edgeLabel "></span></div></foreignObject></g></g><g class="edgeLabel"><g class="label" data-id="L_GW_BJ_0" transform="translate(0, 0)"><foreignObject width="0" height="0"><div xmlns="http://www.w3.org/1999/xhtml" class="labelBkg" style="display: table-cell; white-space: nowrap; line-height: 1.5; max-width: 200px; text-align: center;"><span class="edgeLabel "></span></div></foreignObject></g></g><g class="edgeLabel"><g class="label" data-id="L_CT_MG_0" transform="translate(0, 0)"><foreignObject width="0" height="0"><div xmlns="http://www.w3.org/1999/xhtml" class="labelBkg" style="display: table-cell; white-space: nowrap; line-height: 1.5; max-width: 200px; text-align: center;"><span class="edgeLabel "></span></div></foreignObject></g></g><g class="edgeLabel"><g class="label" data-id="L_CT_CL_0" transform="translate(0, 0)"><foreignObject width="0" height="0"><div xmlns="http://www.w3.org/1999/xhtml" class="labelBkg" style="display: table-cell; white-space: nowrap; line-height: 1.5; max-width: 200px; text-align: center;"><span class="edgeLabel "></span></div></foreignObject></g></g><g class="edgeLabel"><g class="label" data-id="L_SK_RD_0" transform="translate(0, 0)"><foreignObject width="0" height="0"><div xmlns="http://www.w3.org/1999/xhtml" class="labelBkg" style="display: table-cell; white-space: nowrap; line-height: 1.5; max-width: 200px; text-align: center;"><span class="edgeLabel "></span></div></foreignObject></g></g><g class="edgeLabel"><g class="label" data-id="L_AI_MG_0" transform="translate(0, 0)"><foreignObject width="0" height="0"><div xmlns="http://www.w3.org/1999/xhtml" class="labelBkg" style="display: table-cell; white-space: nowrap; line-height: 1.5; max-width: 200px; text-align: center;"><span class="edgeLabel "></span></div></foreignObject></g></g><g class="edgeLabel"><g class="label" data-id="L_BJ_MG_0" transform="translate(0, 0)"><foreignObject width="0" height="0"><div xmlns="http://www.w3.org/1999/xhtml" class="labelBkg" style="display: table-cell; white-space: nowrap; line-height: 1.5; max-width: 200px; text-align: center;"><span class="edgeLabel "></span></div></foreignObject></g></g><g class="edgeLabel"><g class="label" data-id="L_BJ_RD_0" transform="translate(0, 0)"><foreignObject width="0" height="0"><div xmlns="http://www.w3.org/1999/xhtml" class="labelBkg" style="display: table-cell; white-space: nowrap; line-height: 1.5; max-width: 200px; text-align: center;"><span class="edgeLabel "></span></div></foreignObject></g></g><g class="edgeLabel"><g class="label" data-id="L_UI_ST_0" transform="translate(0, 0)"><foreignObject width="0" height="0"><div xmlns="http://www.w3.org/1999/xhtml" class="labelBkg" style="display: table-cell; white-space: nowrap; line-height: 1.5; max-width: 200px; text-align: center;"><span class="edgeLabel "></span></div></foreignObject></g></g><g class="edgeLabel"><g class="label" data-id="L_ST_RT_0" transform="translate(0, 0)"><foreignObject width="0" height="0"><div xmlns="http://www.w3.org/1999/xhtml" class="labelBkg" style="display: table-cell; white-space: nowrap; line-height: 1.5; max-width: 200px; text-align: center;"><span class="edgeLabel "></span></div></foreignObject></g></g><g class="edgeLabel"><g class="label" data-id="L_RT_AU_0" transform="translate(0, 0)"><foreignObject width="0" height="0"><div xmlns="http://www.w3.org/1999/xhtml" class="labelBkg" style="display: table-cell; white-space: nowrap; line-height: 1.5; max-width: 200px; text-align: center;"><span class="edgeLabel "></span></div></foreignObject></g></g><g class="edgeLabel"><g class="label" data-id="L_AU_GW_2" transform="translate(0, 0)"><foreignObject width="0" height="0"><div xmlns="http://www.w3.org/1999/xhtml" class="labelBkg" style="display: table-cell; white-space: nowrap; line-height: 1.5; max-width: 200px; text-align: center;"><span class="edgeLabel "></span></div></foreignObject></g></g><g class="edgeLabel"><g class="label" data-id="L_GW_CT_2" transform="translate(0, 0)"><foreignObject width="0" height="0"><div xmlns="http://www.w3.org/1999/xhtml" class="labelBkg" style="display: table-cell; white-space: nowrap; line-height: 1.5; max-width: 200px; text-align: center;"><span class="edgeLabel "></span></div></foreignObject></g></g><g class="edgeLabel"><g class="label" data-id="L_CT_SK_0" transform="translate(0, 0)"><foreignObject width="0" height="0"><div xmlns="http://www.w3.org/1999/xhtml" class="labelBkg" style="display: table-cell; white-space: nowrap; line-height: 1.5; max-width: 200px; text-align: center;"><span class="edgeLabel "></span></div></foreignObject></g></g><g class="edgeLabel"><g class="label" data-id="L_SK_AI_0" transform="translate(0, 0)"><foreignObject width="0" height="0"><div xmlns="http://www.w3.org/1999/xhtml" class="labelBkg" style="display: table-cell; white-space: nowrap; line-height: 1.5; max-width: 200px; text-align: center;"><span class="edgeLabel "></span></div></foreignObject></g></g><g class="edgeLabel"><g class="label" data-id="L_AI_BJ_0" transform="translate(0, 0)"><foreignObject width="0" height="0"><div xmlns="http://www.w3.org/1999/xhtml" class="labelBkg" style="display: table-cell; white-space: nowrap; line-height: 1.5; max-width: 200px; text-align: center;"><span class="edgeLabel "></span></div></foreignObject></g></g><g class="edgeLabel"><g class="label" data-id="L_BJ_PW_0" transform="translate(0, 0)"><foreignObject width="0" height="0"><div xmlns="http://www.w3.org/1999/xhtml" class="labelBkg" style="display: table-cell; white-space: nowrap; line-height: 1.5; max-width: 200px; text-align: center;"><span class="edgeLabel "></span></div></foreignObject></g></g><g class="edgeLabel"><g class="label" data-id="L_PW_MG_0" transform="translate(0, 0)"><foreignObject width="0" height="0"><div xmlns="http://www.w3.org/1999/xhtml" class="labelBkg" style="display: table-cell; white-space: nowrap; line-height: 1.5; max-width: 200px; text-align: center;"><span class="edgeLabel "></span></div></foreignObject></g></g><g class="edgeLabel"><g class="label" data-id="L_MG_RD_0" transform="translate(0, 0)"><foreignObject width="0" height="0"><div xmlns="http://www.w3.org/1999/xhtml" class="labelBkg" style="display: table-cell; white-space: nowrap; line-height: 1.5; max-width: 200px; text-align: center;"><span class="edgeLabel "></span></div></foreignObject></g></g><g class="edgeLabel"><g class="label" data-id="L_RD_CL_0" transform="translate(0, 0)"><foreignObject width="0" height="0"><div xmlns="http://www.w3.org/1999/xhtml" class="labelBkg" style="display: table-cell; white-space: nowrap; line-height: 1.5; max-width: 200px; text-align: center;"><span class="edgeLabel "></span></div></foreignObject></g></g></g><g class="nodes"><g class="node default  " id="flowchart-UI-0" transform="translate(1124.69921875, 112)"><rect class="basic label-container" style="" x="-131.1015625" y="-54" width="262.203125" height="108"/><g class="label" style="" transform="translate(-83.1015625, -30)"><rect/><foreignObject width="166.203125" height="60"><div xmlns="http://www.w3.org/1999/xhtml" style="display: table-cell; white-space: nowrap; line-height: 1.5; max-width: 200px; text-align: center;"><span class="nodeLabel "><p>UI Layer<br /><small>Tailwind CSS + Lucide</small></p></span></div></foreignObject></g></g><g class="node default  " id="flowchart-ST-1" transform="translate(1216.19921875, 285)"><rect class="basic label-container" style="" x="-148" y="-69" width="296" height="138"/><g class="label" style="" transform="translate(-100, -45)"><rect/><foreignObject width="200" height="90"><div xmlns="http://www.w3.org/1999/xhtml" style="display: table; white-space: break-spaces; line-height: 1.5; max-width: 200px; text-align: center; width: 200px;"><span class="nodeLabel "><p>State Mgmt<br /><small>Redux Toolkit + RTK Query</small></p></span></div></foreignObject></g></g><g class="node default  " id="flowchart-RT-2" transform="translate(1307.5859375, 458)"><rect class="basic label-container" style="" x="-147.7734375" y="-54" width="295.546875" height="108"/><g class="label" style="" transform="translate(-99.7734375, -30)"><rect/><foreignObject width="199.546875" height="60"><div xmlns="http://www.w3.org/1999/xhtml" style="display: table-cell; white-space: nowrap; line-height: 1.5; max-width: 200px; text-align: center;"><span class="nodeLabel "><p>Realtime Client<br /><small>Socket.io + Auto-reconnect</small></p></span></div></foreignObject></g></g><g class="node default  " id="flowchart-PW-3" transform="translate(1399.0859375, 1724)"><rect class="basic label-container" style="" x="-148" y="-69" width="296" height="138"/><g class="label" style="" transform="translate(-100, -45)"><rect/><foreignObject width="200" height="90"><div xmlns="http://www.w3.org/1999/xhtml" style="display: table; white-space: break-spaces; line-height: 1.5; max-width: 200px; text-align: center; width: 200px;"><span class="nodeLabel "><p>PWA Engine<br /><small>Service Worker + Cache API</small></p></span></div></foreignObject></g></g><g class="node default  " id="flowchart-AU-4" transform="translate(1399.0859375, 631)"><rect class="basic label-container" style="" x="-148" y="-69" width="296" height="138"/><g class="label" style="" transform="translate(-100, -45)"><rect/><foreignObject width="200" height="90"><div xmlns="http://www.w3.org/1999/xhtml" style="display: table; white-space: break-spaces; line-height: 1.5; max-width: 200px; text-align: center; width: 200px;"><span class="nodeLabel "><p>Auth Layer<br /><small>JWT + Firebase + WebAuthn</small></p></span></div></foreignObject></g></g><g class="node default  " id="flowchart-GW-5" transform="translate(1104.69921875, 819)"><rect class="basic label-container" style="" x="-148" y="-69" width="296" height="138"/><g class="label" style="" transform="translate(-100, -45)"><rect/><foreignObject width="200" height="90"><div xmlns="http://www.w3.org/1999/xhtml" style="display: table; white-space: break-spaces; line-height: 1.5; max-width: 200px; text-align: center; width: 200px;"><span class="nodeLabel "><p>API Gateway<br /><small>Helmet · CORS · Rate Limit · CSRF</small></p></span></div></foreignObject></g></g><g class="node default  " id="flowchart-CT-6" transform="translate(243.28125, 1032)"><rect class="basic label-container" style="" x="-148" y="-69" width="296" height="138"/><g class="label" style="" transform="translate(-100, -45)"><rect/><foreignObject width="200" height="90"><div xmlns="http://www.w3.org/1999/xhtml" style="display: table; white-space: break-spaces; line-height: 1.5; max-width: 200px; text-align: center; width: 200px;"><span class="nodeLabel "><p>Controllers<br /><small>Auth · Order · Payment · Restaurant</small></p></span></div></foreignObject></g></g><g class="node default  " id="flowchart-SK-7" transform="translate(252.3828125, 1205)"><rect class="basic label-container" style="" x="-136.1875" y="-54" width="272.375" height="108"/><g class="label" style="" transform="translate(-88.1875, -30)"><rect/><foreignObject width="176.375" height="60"><div xmlns="http://www.w3.org/1999/xhtml" style="display: table-cell; white-space: nowrap; line-height: 1.5; max-width: 200px; text-align: center;"><span class="nodeLabel "><p>Socket.io Server<br /><small>Redis Adapter + Rooms</small></p></span></div></foreignObject></g></g><g class="node default  " id="flowchart-AI-8" transform="translate(610.11328125, 1378)"><rect class="basic label-container" style="" x="-148" y="-69" width="296" height="138"/><g class="label" style="" transform="translate(-100, -45)"><rect/><foreignObject width="200" height="90"><div xmlns="http://www.w3.org/1999/xhtml" style="display: table; white-space: break-spaces; line-height: 1.5; max-width: 200px; text-align: center; width: 200px;"><span class="nodeLabel "><p>AI Service<br /><small>Groq LLM + Function Calling</small></p></span></div></foreignObject></g></g><g class="node default  " id="flowchart-BJ-9" transform="translate(695.15625, 1551)"><rect class="basic label-container" style="" x="-135.0859375" y="-54" width="270.171875" height="108"/><g class="label" style="" transform="translate(-87.0859375, -30)"><rect/><foreignObject width="174.171875" height="60"><div xmlns="http://www.w3.org/1999/xhtml" style="display: table-cell; white-space: nowrap; line-height: 1.5; max-width: 200px; text-align: center;"><span class="nodeLabel "><p>Background Jobs<br /><small>BullMQ + Redis Worker</small></p></span></div></foreignObject></g></g><g class="node default  " id="flowchart-MG-10" transform="translate(528.61328125, 1949.0687713623047)"><path d="M0,16.045845272206304 a112,16.045845272206304 0,0,0 224,0 a112,16.045845272206304 0,0,0 -224,0 l0,130.0458452722063 a112,16.045845272206304 0,0,0 224,0 l0,-130.0458452722063" class="basic label-container" style="" label-offset-y="16.045845272206304" transform="translate(-112, -81.06876790830945)"/><g class="label" style="" transform="translate(-100, -29)"><rect/><foreignObject width="200" height="90"><div xmlns="http://www.w3.org/1999/xhtml" style="display: table; white-space: break-spaces; line-height: 1.5; max-width: 200px; text-align: center; width: 200px;"><span class="nodeLabel "><p>MongoDB Atlas<br /><small>14 Collections + Geo Indexes</small></p></span></div></foreignObject></g></g><g class="node default  " id="flowchart-RD-11" transform="translate(409.4765625, 2161.206314086914)"><path d="M0,16.045845272206304 a112,16.045845272206304 0,0,0 224,0 a112,16.045845272206304 0,0,0 -224,0 l0,130.0458452722063 a112,16.045845272206304 0,0,0 224,0 l0,-130.0458452722063" class="basic label-container" style="" label-offset-y="16.045845272206304" transform="translate(-112, -81.06876790830945)"/><g class="label" style="" transform="translate(-100, -29)"><rect/><foreignObject width="200" height="90"><div xmlns="http://www.w3.org/1999/xhtml" style="display: table; white-space: break-spaces; line-height: 1.5; max-width: 200px; text-align: center; width: 200px;"><span class="nodeLabel "><p>Redis Cloud<br /><small>Session · Cache · Rate Limits</small></p></span></div></foreignObject></g></g><g class="node default  " id="flowchart-CL-12" transform="translate(163.59375, 2356.539993286133)"><path d="M0,14.846684942633768 a91.390625,14.846684942633768 0,0,0 182.78125,0 a91.390625,14.846684942633768 0,0,0 -182.78125,0 l0,98.84668494263377 a91.390625,14.846684942633768 0,0,0 182.78125,0 l0,-98.84668494263377" class="basic label-container" style="" label-offset-y="14.846684942633768" transform="translate(-91.390625, -64.27002741395066)"/><g class="label" style="" transform="translate(-79.390625, -14)"><rect/><foreignObject width="158.78125" height="60"><div xmlns="http://www.w3.org/1999/xhtml" style="display: table-cell; white-space: nowrap; line-height: 1.5; max-width: 200px; text-align: center;"><span class="nodeLabel "><p>Cloudinary<br /><small>Image Upload + CDN</small></p></span></div></foreignObject></g></g></g></g></g></svg>