<svg id="mermaid-svg" width="100%" style="max-width: 2760.3px;" xmlns="http://www.w3.org/2000/svg" xmlns:xlink="http://www.w3.org/1999/xlink" viewBox="0 0 2760.3 842.14" preserveAspectRatio="xMidYMid meet" class="flowchart" role="graphics-document document" aria-roledescription="flowchart-v2"><style>#mermaid-svg{font-family:"trebuchet ms",verdana,arial,sans-serif;font-size:20px;fill:#ccc;}
#mermaid-svg .label{color:#E4E4E7;}
#mermaid-svg .cluster-label span{color:#A1A1AA;}
#mermaid-svg .label text,#mermaid-svg span{fill:#E4E4E7;color:#E4E4E7;}
#mermaid-svg .node rect,#mermaid-svg .node path{fill:#18181B;stroke:#3F3F46;stroke-width:1px;}
#mermaid-svg .edgePath .path{stroke:#52525B;stroke-width:2px;}
#mermaid-svg .flowchart-link{stroke:#52525B;fill:none;}
#mermaid-svg .edgeLabel{background-color:#18181B;}
#mermaid-svg .cluster rect{fill:#18181B;stroke:#3F3F46;stroke-width:1px;}
#mermaid-svg .cluster text,#mermaid-svg .cluster span{color:#A1A1AA;}
#mermaid-svg .marker{fill:#52525B;stroke:#52525B;}
#mermaid-svg p{margin:0;}
#mermaid-svg .edge-thickness-normal{stroke-width:1px;}
#mermaid-svg .edge-pattern-solid{stroke-dasharray:0;}
</style><g><marker id="pointEnd" viewBox="0 0 10 10" refX="5" refY="5" markerWidth="8" markerHeight="8" orient="auto"><path d="M 0 0 L 10 5 L 0 10 z" fill="#52525B"/></marker><g class="root"><g class="clusters"><g class="cluster" data-look="classic"><rect x="8" y="409" width="100%" rx="6" ry="6"/><g class="cluster-label" transform="translate(585.27,409)"><foreignObject width="200" height="60"><div xmlns="http://www.w3.org/1999/xhtml" style="max-width: 2760.3px;"><span class="nodeLabel"><p>Backend — Node.js 22 + Express 5</p></span></div></foreignObject></g></g><g class="cluster" data-look="classic"><rect x="1382.5" y="8" width="1369.8" height="589" rx="6" ry="6"/><g class="cluster-label" transform="translate(1967.42,8)"><foreignObject width="200" height="60"><div xmlns="http://www.w3.org/1999/xhtml" style="display:table-cell;white-space:break-spaces;line-height:1.5;max-width:200px;text-align:center;width:200px;"><span class="nodeLabel"><p>Frontend — React 19 PWA</p></span></div></foreignObject></g></g></g><g class="edgePaths"><path d="M1548.65,156L1548.65,162.7C1548.65,169.3,1548.65,182.7,1579.86,198C1611.06,213.3,1673.48,230.6,1704.69,239.3L1735.9,247.9" class="edge-thickness-normal edge-pattern-solid flowchart-link" marker-end="url(#pointEnd)"/><path d="M1877.75,171L1877.75,175.2C1877.75,179.3,1877.75,187.7,1878.12,195.3C1878.5,203,1879.24,210,1879.61,213.5L1879.99,217" class="edge-thickness-normal edge-pattern-solid flowchart-link" marker-end="url(#pointEnd)"/><path d="M2129.95,156L2118.4,162.7C2106.85,169.3,2083.74,182.7,2065.11,193.2C2046.48,203.7,2032.33,211.4,2025.25,215.2L2018.17,219.1" class="edge-thickness-normal edge-pattern-solid flowchart-link" marker-end="url(#pointEnd)"/><path d="M2569.3,171L2569.3,175.2C2569.3,179.3,2569.3,187.7,2481.03,204C2392.77,220.3,2216.24,244.7,2127.98,256.9L2039.71,269" class="edge-thickness-normal edge-pattern-solid flowchart-link" marker-end="url(#pointEnd)"/><path d="M1739.75,332.8L1710.2,341.3C1680.65,349.8,1621.54,366.9,1591.99,379.6C1562.44,392.3,1562.44,400.7,1359.2,418.8C1155.96,436.9,749.47,464.7,546.23,478.7L342.99,492.6" class="edge-thickness-normal edge-pattern-solid flowchart-link" marker-end="url(#pointEnd)"/><path d="M1739.75,335.6L1713.53,343.6C1687.31,351.7,1634.88,367.9,1608.66,380.1C1582.44,392.3,1582.44,400.7,1487.26,417.4C1392.07,434.2,1201.71,459.3,1106.52,471.9L1011.34,484.5" class="edge-thickness-normal edge-pattern-solid flowchart-link" marker-end="url(#pointEnd)"/><path d="M1845.39,359L1842.83,363.2C1840.27,367.3,1835.16,375.7,1832.6,384C1830.04,392.3,1830.04,400.7,1639.86,418.7C1449.69,436.7,1069.34,464.3,879.16,478.1L688.99,492" class="edge-thickness-normal edge-pattern-solid flowchart-link" marker-end="url(#pointEnd)"/><path d="M2035.75,332.7L2065.38,341.3C2095.01,349.8,2154.27,366.9,2183.9,379.6C2213.52,392.3,2213.52,400.7,2213.52,408.3C2213.52,416,2213.52,423,2213.52,426.5L2213.52,430" class="edge-thickness-normal edge-pattern-solid flowchart-link" marker-end="url(#pointEnd)"/><path d="M2035.75,330.2L2068.71,339.2C2101.67,348.2,2167.6,366.1,2200.56,379.2C2233.52,392.3,2233.52,400.7,2083.19,418.4C1932.86,436.1,1632.2,463.3,1481.86,476.9L1331.53,490.4" class="edge-thickness-normal edge-pattern-solid flowchart-link" marker-end="url(#pointEnd)"/><path d="M2317.1,156L2328.65,162.7C2340.2,169.3,2363.31,182.7,2374.86,205C2386.41,227.3,2386.41,258.7,2386.41,290C2386.41,321.3,2386.41,352.7,2386.41,372.5C2386.41,392.3,2386.41,400.7,2157.24,419.1C1928.06,437.4,1469.72,465.9,1240.54,480.1L1011.37,494.3" class="edge-thickness-normal edge-pattern-solid flowchart-link" marker-end="url(#pointEnd)"/><path d="M131.18,572L127.56,576.2C123.95,580.3,116.73,588.7,113.11,597C109.5,605.3,109.5,613.7,161.44,630.7C213.37,647.8,317.25,673.5,369.18,686.4L421.12,699.3" class="edge-thickness-normal edge-pattern-solid flowchart-link" marker-end="url(#pointEnd)"/><path d="M224.99,572L227.04,576.2C229.1,580.3,233.2,588.7,235.25,597C237.31,605.3,237.31,613.7,234.53,624.3C231.75,634.9,226.19,647.9,223.41,654.4L220.63,660.8" class="edge-thickness-normal edge-pattern-solid flowchart-link" marker-end="url(#pointEnd)"/><path d="M871.19,557L871.19,563.7C871.19,570.3,871.19,583.7,871.19,594.5C871.19,605.3,871.19,613.7,895.08,627.6C918.96,641.6,966.74,661.1,990.63,670.9L1014.51,680.7" class="edge-thickness-normal edge-pattern-solid flowchart-link" marker-end="url(#pointEnd)"/><path d="M537,572L537,576.2C537,580.3,537,588.7,537,597C537,605.3,537,613.7,537,621.3C537,629,537,636,537,639.5L537,643" class="edge-thickness-normal edge-pattern-solid flowchart-link" marker-end="url(#pointEnd)"/><path d="M1105.93,557L1095.24,563.7C1084.56,570.3,1063.19,583.7,1052.51,594.5C1041.82,605.3,1041.82,613.7,977.01,631.5C912.19,649.2,782.55,676.5,717.73,690.1L652.92,703.7" class="edge-thickness-normal edge-pattern-solid flowchart-link" marker-end="url(#pointEnd)"/><path d="M1235.57,557L1240.89,563.7C1246.22,570.3,1256.86,583.7,1262.18,594.5C1267.5,605.3,1267.5,613.7,1262.56,623.2C1257.62,632.8,1247.73,643.7,1242.79,649.1L1237.84,654.5" class="edge-thickness-normal edge-pattern-solid flowchart-link" marker-end="url(#pointEnd)"/></g><g class="nodes"><g class="node" transform="translate(1548.65,102)"><rect x="-131.1" y="-54" width="262.2" height="108" rx="8" ry="8"/><g class="label" transform="translate(-83.1,-30)"><foreignObject width="166.2" height="60"><div xmlns="http://www.w3.org/1999/xhtml" style="display:table-cell;white-space:nowrap;line-height:1.5;max-width:200px;text-align:center;"><span class="nodeLabel"><p>UI Layer<br/><small>Tailwind CSS + Lucide</small></p></span></div></foreignObject></g></g><g class="node" transform="translate(1877.75,102)"><rect x="-148" y="-69" width="296" height="138" rx="8" ry="8"/><g class="label" transform="translate(-100,-45)"><foreignObject width="200" height="90"><div xmlns="http://www.w3.org/1999/xhtml" style="display:table-cell;white-space:break-spaces;line-height:1.5;max-width:200px;text-align:center;width:200px;"><span class="nodeLabel"><p>State Mgmt<br/><small>Redux Toolkit + RTK Query</small></p></span></div></foreignObject></g></g><g class="node" transform="translate(2223.52,102)"><rect x="-147.8" y="-54" width="295.5" height="108" rx="8" ry="8"/><g class="label" transform="translate(-99.8,-30)"><foreignObject width="199.5" height="60"><div xmlns="http://www.w3.org/1999/xhtml" style="display:table-cell;white-space:nowrap;line-height:1.5;max-width:200px;text-align:center;"><span class="nodeLabel"><p>Realtime Client<br/><small>Socket.io + Auto-reconnect</small></p></span></div></foreignObject></g></g><g class="node" transform="translate(2213.52,503)"><rect x="-148" y="-69" width="296" height="138" rx="8" ry="8"/><g class="label" transform="translate(-100,-45)"><foreignObject width="200" height="90"><div xmlns="http://www.w3.org/1999/xhtml" style="display:table-cell;white-space:break-spaces;line-height:1.5;max-width:200px;text-align:center;width:200px;"><span class="nodeLabel"><p>PWA Engine<br/><small>Service Worker + Cache API</small></p></span></div></foreignObject></g></g><g class="node" transform="translate(2569.3,102)"><rect x="-148" y="-69" width="296" height="138" rx="8" ry="8"/><g class="label" transform="translate(-100,-45)"><foreignObject width="200" height="90"><div xmlns="http://www.w3.org/1999/xhtml" style="display:table-cell;white-space:break-spaces;line-height:1.5;max-width:200px;text-align:center;width:200px;"><span class="nodeLabel"><p>Auth Layer<br/><small>JWT + Firebase + WebAuthn</small></p></span></div></foreignObject></g></g><g class="node" transform="translate(1887.75,290)"><rect x="-148" y="-69" width="296" height="138" rx="8" ry="8"/><g class="label" transform="translate(-100,-45)"><foreignObject width="200" height="90"><div xmlns="http://www.w3.org/1999/xhtml" style="display:table-cell;white-space:break-spaces;line-height:1.5;max-width:200px;text-align:center;width:200px;"><span class="nodeLabel"><p>API Gateway<br/><small>Helmet · CORS · Rate Limit · CSRF</small></p></span></div></foreignObject></g></g><g class="node" transform="translate(191,503)"><rect x="-148" y="-69" width="296" height="138" rx="8" ry="8"/><g class="label" transform="translate(-100,-45)"><foreignObject width="200" height="90"><div xmlns="http://www.w3.org/1999/xhtml" style="display:table-cell;white-space:break-spaces;line-height:1.5;max-width:200px;text-align:center;width:200px;"><span class="nodeLabel"><p>Controllers<br/><small>Auth · Order · Payment · Restaurant</small></p></span></div></foreignObject></g></g><g class="node" transform="translate(871.19,503)"><rect x="-136.2" y="-54" width="272.4" height="108" rx="8" ry="8"/><g class="label" transform="translate(-88.2,-30)"><foreignObject width="176.4" height="60"><div xmlns="http://www.w3.org/1999/xhtml" style="display:table-cell;white-space:nowrap;line-height:1.5;max-width:200px;text-align:center;"><span class="nodeLabel"><p>Socket.io Server<br/><small>Redis Adapter + Rooms</small></p></span></div></foreignObject></g></g><g class="node" transform="translate(537,503)"><rect x="-148" y="-69" width="296" height="138" rx="8" ry="8"/><g class="label" transform="translate(-100,-45)"><foreignObject width="200" height="90"><div xmlns="http://www.w3.org/1999/xhtml" style="display:table-cell;white-space:break-spaces;line-height:1.5;max-width:200px;text-align:center;width:200px;"><span class="nodeLabel"><p>AI Service<br/><small>Groq LLM + Function Calling</small></p></span></div></foreignObject></g></g><g class="node" transform="translate(1192.46,503)"><rect x="-135.1" y="-54" width="270.2" height="108" rx="8" ry="8"/><g class="label" transform="translate(-87.1,-30)"><foreignObject width="174.2" height="60"><div xmlns="http://www.w3.org/1999/xhtml" style="display:table-cell;white-space:nowrap;line-height:1.5;max-width:200px;text-align:center;"><span class="nodeLabel"><p>Background Jobs<br/><small>BullMQ + Redis Worker</small></p></span></div></foreignObject></g></g><g class="node" transform="translate(537,728.07)"><path d="M0,16 a112,16 0,0,0 224,0 a112,16 0,0,0 -224,0 l0,130 a112,16 0,0,0 224,0 l0,-130" transform="translate(-112,-81.07)"/><g class="label" transform="translate(-100,-29)"><foreignObject width="200" height="90"><div xmlns="http://www.w3.org/1999/xhtml" style="display:table-cell;white-space:break-spaces;line-height:1.5;max-width:200px;text-align:center;width:200px;"><span class="nodeLabel"><p>MongoDB Atlas<br/><small>14 Collections + Geo Indexes</small></p></span></div></foreignObject></g></g><g class="node" transform="translate(1130.21,728.07)"><path d="M0,16 a112,16 0,0,0 224,0 a112,16 0,0,0 -224,0 l0,130 a112,16 0,0,0 224,0 l0,-130" transform="translate(-112,-81.07)"/><g class="label" transform="translate(-100,-29)"><foreignObject width="200" height="90"><div xmlns="http://www.w3.org/1999/xhtml" style="display:table-cell;white-space:break-spaces;line-height:1.5;max-width:200px;text-align:center;width:200px;"><span class="nodeLabel"><p>Redis Cloud<br/><small>Session · Cache · Rate Limits</small></p></span></div></foreignObject></g></g><g class="node" transform="translate(191,728.07)"><path d="M0,14.8 a91.4,14.8 0,0,0 182.8,0 a91.4,14.8 0,0,0 -182.8,0 l0,98.8 a91.4,14.8 0,0,0 182.8,0 l0,-98.8" transform="translate(-91.4,-64.27)"/><g class="label" transform="translate(-79.4,-14)"><foreignObject width="158.8" height="60"><div xmlns="http://www.w3.org/1999/xhtml" style="display:table-cell;white-space:nowrap;line-height:1.5;max-width:200px;text-align:center;"><span class="nodeLabel"><p>Cloudinary<br/><small>Image Upload + CDN</small></p></span></div></foreignObject></g></g></g></g></g></svg>
