<svg id="mermaid-svg" width="100%" style="max-width: 1068.9px;" xmlns="http://www.w3.org/2000/svg" xmlns:xlink="http://www.w3.org/1999/xlink" viewBox="0 0 1068.9 1421.1" preserveAspectRatio="xMidYMid meet" class="flowchart" role="graphics-document document" aria-roledescription="flowchart-v2"><style>#mermaid-svg{font-family:"trebuchet ms",verdana,arial,sans-serif;font-size:20px;fill:#ccc;}@keyframes dash{to{stroke-dashoffset:0;}}#mermaid-svg .edge-animation-slow{stroke-dasharray:9,5!important;stroke-dashoffset:900;animation:dash 50s linear infinite;stroke-linecap:round;}#mermaid-svg .edge-animation-fast{stroke-dasharray:9,5!important;stroke-dashoffset:900;animation:dash 20s linear infinite;stroke-linecap:round;}#mermaid-svg .error-icon{fill:#a44141;}#mermaid-svg .error-text{fill:#ddd;stroke:#ddd;}#mermaid-svg .edge-thickness-normal{stroke-width:1px;}#mermaid-svg .edge-thickness-thick{stroke-width:3.5px;}#mermaid-svg .edge-pattern-solid{stroke-dasharray:0;}#mermaid-svg .edge-thickness-invisible{stroke-width:0;fill:none;}#mermaid-svg .edge-pattern-dashed{stroke-dasharray:3;}#mermaid-svg .edge-pattern-dotted{stroke-dasharray:2;}#mermaid-svg .marker{fill:#52525B;stroke:#52525B;}#mermaid-svg .marker.cross{stroke:#52525B;}#mermaid-svg svg{font-family:"trebuchet ms",verdana,arial,sans-serif;font-size:20px;}#mermaid-svg p{margin:0;}#mermaid-svg .label{font-family:"trebuchet ms",verdana,arial,sans-serif;color:#E4E4E7;}#mermaid-svg .cluster-label text{fill:#A1A1AA;}#mermaid-svg .cluster-label span{color:#A1A1AA;}#mermaid-svg .cluster-label span p{background-color:transparent;}#mermaid-svg .label text,#mermaid-svg span{fill:#E4E4E7;color:#E4E4E7;}#mermaid-svg .node rect,#mermaid-svg .node circle,#mermaid-svg .node ellipse,#mermaid-svg .node polygon,#mermaid-svg .node path{fill:#18181B;stroke:#3F3F46;stroke-width:1px;}#mermaid-svg .rough-node .label text,#mermaid-svg .node .label text,#mermaid-svg .image-shape .label,#mermaid-svg .icon-shape .label{text-anchor:middle;}#mermaid-svg .node .katex path{fill:#000;stroke:#000;stroke-width:1px;}#mermaid-svg .rough-node .label,#mermaid-svg .node .label,#mermaid-svg .image-shape .label,#mermaid-svg .icon-shape .label{text-align:center;}#mermaid-svg .node.clickable{cursor:pointer;}#mermaid-svg .root .anchor path{fill:#52525B!important;stroke-width:0;stroke:#52525B;}#mermaid-svg .arrowheadPath{fill:lightgrey;}#mermaid-svg .edgePath .path{stroke:#52525B;stroke-width:2.0px;}#mermaid-svg .flowchart-link{stroke:#52525B;fill:none;}#mermaid-svg .edgeLabel{background-color:#18181B;text-align:center;}#mermaid-svg .edgeLabel p{background-color:#18181B;}#mermaid-svg .edgeLabel rect{opacity:0.5;background-color:#18181B;fill:#18181B;}#mermaid-svg .labelBkg{background-color:rgba(24, 24, 27, 0.5);}#mermaid-svg .cluster rect{fill:#18181B;stroke:#3F3F46;stroke-width:1px;}#mermaid-svg .cluster text{fill:#A1A1AA;}#mermaid-svg .cluster span{color:#A1A1AA;}#mermaid-svg div.mermaidTooltip{position:absolute;text-align:center;max-width:200px;padding:2px;font-family:"trebuchet ms",verdana,arial,sans-serif;font-size:20px;background:#18181B;border:1px solid rgba(255, 255, 255, 0.25);border-radius:2px;pointer-events:none;z-index:100;}#mermaid-svg .flowchartTitleText{text-anchor:middle;font-size:20px;fill:#ccc;}#mermaid-svg rect.text{fill:none;stroke-width:0;}#mermaid-svg .icon-shape,#mermaid-svg .image-shape{background-color:#18181B;text-align:center;}#mermaid-svg .icon-shape p,#mermaid-svg .image-shape p{background-color:#18181B;padding:2px;}#mermaid-svg .icon-shape rect,#mermaid-svg .image-shape rect{opacity:0.5;background-color:#18181B;fill:#18181B;}#mermaid-svg .label-icon{display:inline-block;height:1em;overflow:visible;vertical-align:-0.125em;}#mermaid-svg .node .label-icon path{fill:currentColor;stroke:revert;stroke-width:revert;}#mermaid-svg :root{--mermaid-font-family:"trebuchet ms",verdana,arial,sans-serif;}</style><g><marker id="pointEnd" viewBox="0 0 10 10" refX="5" refY="5" markerUnits="userSpaceOnUse" markerWidth="8" markerHeight="8" orient="auto"><path d="M 0 0 L 10 5 L 0 10 z" class="arrowMarkerPath" style="max-width: 1068.9px;"/></marker><marker id="pointStart" viewBox="0 0 10 10" refX="4.5" refY="5" markerUnits="userSpaceOnUse" markerWidth="8" markerHeight="8" orient="auto"><path d="M 0 5 L 10 10 L 10 0 z" class="arrowMarkerPath" style="stroke-width: 1; stroke-dasharray: 1, 0;"/></marker><marker id="circleEnd" viewBox="0 0 10 10" refX="11" refY="5" markerUnits="userSpaceOnUse" markerWidth="11" markerHeight="11" orient="auto"><circle cx="5" cy="5" r="5" class="arrowMarkerPath" style="stroke-width: 1; stroke-dasharray: 1, 0;"/></marker><marker id="circleStart" viewBox="0 0 10 10" refX="-1" refY="5" markerUnits="userSpaceOnUse" markerWidth="11" markerHeight="11" orient="auto"><circle cx="5" cy="5" r="5" class="arrowMarkerPath" style="stroke-width: 1; stroke-dasharray: 1, 0;"/></marker><marker id="crossEnd" class="marker cross" viewBox="0 0 11 11" refX="12" refY="5.2" markerUnits="userSpaceOnUse" markerWidth="11" markerHeight="11" orient="auto"><path d="M 1,1 l 9,9 M 10,1 l -9,9" class="arrowMarkerPath" style="stroke-width: 2; stroke-dasharray: 1, 0;"/></marker><marker id="crossStart" class="marker cross" viewBox="0 0 11 11" refX="-1" refY="5.2" markerUnits="userSpaceOnUse" markerWidth="11" markerHeight="11" orient="auto"><path d="M 1,1 l 9,9 M 10,1 l -9,9" class="arrowMarkerPath" style="stroke-width: 2; stroke-dasharray: 1, 0;"/></marker><g class="root"><g class="clusters"><g class="cluster" id="PDF"><rect style="" x="8" y="1018" width="100%"/><g class="cluster-label" transform="translate(104.7, 1018)"><foreignObject width="107.8" height="30"><div xmlns="http://www.w3.org/1999/xhtml" style="display: table-cell; white-space: nowrap; line-height: 1.5; max-width: 200px; text-align: center;"><span class="nodeLabel"><p>PDF Engine</p></span></div></foreignObject></g></g><g class="cluster" id="DATA_L"><rect style="" x="329.2" y="1018" width="731.7" height="212.1"/><g class="cluster-label" transform="translate(603.9, 1018)"><foreignObject width="182.3" height="30"><div xmlns="http://www.w3.org/1999/xhtml" style="display: table-cell; white-space: nowrap; line-height: 1.5; max-width: 200px; text-align: center;"><span class="nodeLabel"><p>Data &amp; Queue Layer</p></span></div></foreignObject></g></g><g class="cluster" id="SERVER"><rect style="" x="100.6" y="246" width="849.5" height="722"/><g class="cluster-label" transform="translate(437.5, 246)"><foreignObject width="175.7" height="30"><div xmlns="http://www.w3.org/1999/xhtml" style="display: table-cell; white-space: nowrap; line-height: 1.5; max-width: 200px; text-align: center;"><span class="nodeLabel"><p>Hono v4 API Server</p></span></div></foreignObject></g></g><g class="cluster" id="CLIENT"><rect style="" x="371.6" y="8" width="366" height="188"/><g class="cluster-label" transform="translate(529, 8)"><foreignObject width="51.1" height="30"><div xmlns="http://www.w3.org/1999/xhtml" style="display: table-cell; white-space: nowrap; line-height: 1.5; max-width: 200px; text-align: center;"><span class="nodeLabel"><p>Client</p></span></div></foreignObject></g></g></g><g class="edgePaths"><path d="M554.6,171L554.6,175.2C554.6,179.3,554.6,187.7,554.6,196C554.6,204.3,554.6,212.7,554.6,221C554.6,229.3,554.6,237.7,554.6,245.3C554.6,253,554.6,260,554.6,263.5L554.6,267" class="edge-thickness-normal edge-pattern-solid flowchart-link" marker-end="url(#pointEnd)"/><path d="M554.6,409L554.6,413.2C554.6,417.3,554.6,425.7,554.6,433.3C554.6,441,554.6,448,554.6,451.5L554.6,455" class="edge-thickness-normal edge-pattern-solid flowchart-link" marker-end="url(#pointEnd)"/><path d="M554.6,597L554.6,601.2C554.6,605.3,554.6,613.7,554.6,621.3C554.6,629,554.6,636,554.6,639.5L554.6,643" class="edge-thickness-normal edge-pattern-solid flowchart-link" marker-end="url(#pointEnd)"/><path d="M554.6,785L554.6,789.2C554.6,793.3,554.6,801.7,554.6,809.3C554.6,817,554.6,824,554.6,827.5L554.6,831" class="edge-thickness-normal edge-pattern-solid flowchart-link" marker-end="url(#pointEnd)"/><path d="M479.8,943L474,947.2C468.2,951.3,456.7,959.7,450.9,968C445.1,976.3,445.1,984.7,445.1,993C445.1,1001.3,445.1,1009.7,445.1,1020.3C445.1,1031,445.1,1043.9,445.1,1050.4L445.1,1056.9" class="edge-thickness-normal edge-pattern-solid flowchart-link" marker-end="url(#pointEnd)"/><path d="M629.4,943L635.1,947.2C640.9,951.3,652.4,959.7,658.2,968C664,976.3,664,984.7,664,993C664,1001.3,664,1009.7,664,1020.2C664,1030.7,664,1043.4,664,1049.8L664,1056.2" class="edge-thickness-normal edge-pattern-solid flowchart-link" marker-end="url(#pointEnd)"/><path d="M697,920.3L733.1,928.3C769.3,936.2,841.6,952.1,877.7,964.2C913.9,976.3,913.9,984.7,913.9,993C913.9,1001.3,913.9,1009.7,913.9,1017.3C913.9,1025,913.9,1032,913.9,1035.5L913.9,1039" class="edge-thickness-normal edge-pattern-solid flowchart-link" marker-end="url(#pointEnd)"/><path d="M412.1,917.4L369.9,925.8C327.6,934.3,243.1,951.1,200.9,963.7C158.6,976.3,158.6,984.7,158.6,993C158.6,1001.3,158.6,1009.7,158.6,1021.8C158.6,1034,158.6,1050,158.6,1058.1L158.6,1066.1" class="edge-thickness-normal edge-pattern-solid flowchart-link" marker-end="url(#pointEnd)"/><path d="M158.6,1178.1L158.6,1186.7C158.6,1195.4,158.6,1212.8,158.6,1225.6C158.6,1238.5,158.6,1246.8,158.6,1254.5C158.6,1262.1,158.6,1269.1,158.6,1272.6L158.6,1276.1" class="edge-thickness-normal edge-pattern-solid flowchart-link" marker-end="url(#pointEnd)"/></g><g class="nodes"><g class="node default" id="flowchart-BR-0" transform="translate(554.6, 102)"><rect class="basic label-container" style="" x="-148" y="-69" width="296" height="138"/><g class="label" style="" transform="translate(-100, -45)"><foreignObject width="200" height="90"><div xmlns="http://www.w3.org/1999/xhtml" style="display: table; white-space: break-spaces; line-height: 1.5; max-width: 200px; text-align: center; width: 200px;"><span class="nodeLabel"><p>Browser<br/><small>React 19 + Vite, Zustand + React Query</small></p></span></div></foreignObject></g></g><g class="node default" id="flowchart-MW-1" transform="translate(554.6, 340)"><rect class="basic label-container" style="" x="-148" y="-69" width="296" height="138"/><g class="label" style="" transform="translate(-100, -45)"><foreignObject width="200" height="90"><div xmlns="http://www.w3.org/1999/xhtml" style="display: table; white-space: break-spaces; line-height: 1.5; max-width: 200px; text-align: center; width: 200px;"><span class="nodeLabel"><p>Middleware<br/><small>CORS · Logger · Rate Limit</small></p></span></div></foreignObject></g></g><g class="node default" id="flowchart-AUTH-2" transform="translate(554.6, 528)"><rect class="basic label-container" style="" x="-148" y="-69" width="296" height="138"/><g class="label" style="" transform="translate(-100, -45)"><foreignObject width="200" height="90"><div xmlns="http://www.w3.org/1999/xhtml" style="display: table; white-space: break-spaces; line-height: 1.5; max-width: 200px; text-align: center; width: 200px;"><span class="nodeLabel"><p>Auth Layer<br/><small>Clerk JWT · RBAC · API Key</small></p></span></div></foreignObject></g></g><g class="node default" id="flowchart-ROUTES-3" transform="translate(554.6, 716)"><rect class="basic label-container" style="" x="-148" y="-69" width="296" height="138"/><g class="label" style="" transform="translate(-100, -45)"><foreignObject width="200" height="90"><div xmlns="http://www.w3.org/1999/xhtml" style="display: table; white-space: break-spaces; line-height: 1.5; max-width: 200px; text-align: center; width: 200px;"><span class="nodeLabel"><p>Route Handlers<br/><small>/resumes /ai /agents /payments</small></p></span></div></foreignObject></g></g><g class="node default" id="flowchart-SVC-4" transform="translate(554.6, 889)"><rect class="basic label-container" style="" x="-142.4" y="-54" width="284.9" height="108"/><g class="label" style="" transform="translate(-94.4, -30)"><rect/><foreignObject width="188.9" height="60"><div xmlns="http://www.w3.org/1999/xhtml" style="display: table-cell; white-space: nowrap; line-height: 1.5; max-width: 200px; text-align: center;"><span class="nodeLabel"><p>Services<br/><small>Resume · PDF · AI · Audit</small></p></span></div></foreignObject></g></g><g class="node default" id="flowchart-MG-5" transform="translate(445.1, 1124.1)"><path d="M0,14.1 a80.9,14.1 0,0,0 161.9,0 a80.9,14.1 0,0,0 -161.9,0 l0,98.1 a80.9,14.1 0,0,0 161.9,0 l0,-98.1" class="basic label-container" style=""/><g class="label" style="" transform="translate(-68.9, -14)"><rect/><foreignObject width="137.9" height="60"><div xmlns="http://www.w3.org/1999/xhtml" style="display: table-cell; white-space: nowrap; line-height: 1.5; max-width: 200px; text-align: center;"><span class="nodeLabel"><p>MongoDB Atlas<br/><small>6 Collections</small></p></span></div></foreignObject></g></g><g class="node default" id="flowchart-RD-6" transform="translate(664, 1124.1)"><path d="M0,14.6 a87.9,14.6 0,0,0 175.8,0 a87.9,14.6 0,0,0 -175.8,0 l0,98.6 a87.9,14.6 0,0,0 175.8,0 l0,-98.6" class="basic label-container" style=""/><g class="label" style="" transform="translate(-75.9, -14)"><rect/><foreignObject width="151.8" height="60"><div xmlns="http://www.w3.org/1999/xhtml" style="display: table-cell; white-space: nowrap; line-height: 1.5; max-width: 200px; text-align: center;"><span class="nodeLabel"><p>Redis<br/><small>Rate Limits · BullMQ</small></p></span></div></foreignObject></g></g><g class="node default" id="flowchart-EXT-7" transform="translate(913.9, 1124.1)"><path d="M0,16 a112,16 0,0,0 224,0 a112,16 0,0,0 -224,0 l0,130 a112,16 0,0,0 224,0 l0,-130" class="basic label-container" style=""/><g class="label" style="" transform="translate(-100, -29)"><foreignObject width="200" height="90"><div xmlns="http://www.w3.org/1999/xhtml" style="display: table; white-space: break-spaces; line-height: 1.5; max-width: 200px; text-align: center; width: 200px;"><span class="nodeLabel"><p>LLM Providers<br/><small>NVIDIA NIM · Gemini · Groq</small></p></span></div></foreignObject></g></g><g class="node default" id="flowchart-BULL-8" transform="translate(158.6, 1124.1)"><rect class="basic label-container" style="" x="-115.6" y="-54" width="231.2" height="108"/><g class="label" style="" transform="translate(-67.6, -30)"><rect/><foreignObject width="135.2" height="60"><div xmlns="http://www.w3.org/1999/xhtml" style="display: table-cell; white-space: nowrap; line-height: 1.5; max-width: 200px; text-align: center;"><span class="nodeLabel"><p>BullMQ Worker<br/><small>Async PDF Gen</small></p></span></div></foreignObject></g></g><g class="node default" id="flowchart-LATEX-9" transform="translate(158.6, 1334.1)"><rect class="basic label-container" style="" x="-112.8" y="-54" width="225.6" height="108"/><g class="label" style="" transform="translate(-64.8, -30)"><rect/><foreignObject width="129.6" height="60"><div xmlns="http://www.w3.org/1999/xhtml" style="display: table-cell; white-space: nowrap; line-height: 1.5; max-width: 200px; text-align: center;"><span class="nodeLabel"><p>pdflatex<br/><small>Docker Container</small></p></span></div></foreignObject></g></g></g></g></g></svg>
